<svg width="21" height="20" viewBox="0 0 21 20" fill="none" xmlns="http://www.w3.org/2000/svg">
<path d="M0.546875 2.43021V2.39167L2.89635 0L10.5687 7.66667L18.1448 0.0958332L20.5021 2.45208C17.9823 4.96979 15.451 7.49896 12.9083 10.0396L20.5469 17.6719C20.4749 17.7165 20.4063 17.7663 20.3417 17.8208C19.6156 18.5458 18.8911 19.2722 18.1682 20H18.1292C18.0987 19.9592 18.0662 19.9199 18.0318 19.8823C15.5748 17.426 13.1177 14.9701 10.6604 12.5146C10.6198 12.474 10.5766 12.437 10.5276 12.3922C10.4755 12.4375 10.4349 12.4745 10.3948 12.5151C7.94166 14.9658 5.48871 17.4168 3.03593 19.8682C2.99583 19.9089 2.96197 19.9557 2.92499 20H2.88593L0.546875 17.6625V17.6234C0.590625 17.5865 0.638016 17.5531 0.678641 17.5125C3.13176 15.0618 5.58472 12.6109 8.03749 10.1599C8.0776 10.1193 8.1151 10.076 8.16093 10.0266C8.10885 9.97448 8.06874 9.92552 8.02395 9.88073C5.58055 7.43872 3.1368 4.99688 0.692704 2.55521C0.647392 2.5099 0.595312 2.47188 0.546875 2.43021Z" fill="#D2D3D2"/>
</svg>
