<svg xmlns="http://www.w3.org/2000/svg" width="113" height="45" viewBox="0 0 113 45" fill="none">
	<path d="M26.3948 22.0415C26.271 22.2537 25.8295 22.3421 26.0593 22.0063C26.3064 21.6173 25.2997 21.1224 23.4099 21.0871C19.9833 26.6732 14.4019 30.9514 9.61549 32.7545C1.03155 35.9896 -3.06622 33.8328 2.63878 28.1581C6.9661 23.8625 15.1791 21.3345 21.9968 20.5919C23.8159 17.5689 25.3702 13.3617 25.5115 10.0205C25.7765 3.97471 21.6611 2.08301 15.9384 3.92178C9.56222 5.97247 4.06915 12.2657 6.25944 14.0689C8.78505 14.9881 5.90611 16.3141 4.72273 14.8468C1.985 12.1598 8.11384 5.35359 15.1965 3.10864C21.9084 0.969546 27.2246 3.05552 26.9775 10.1446C26.8537 13.4858 25.4231 17.5869 23.7806 20.4331C25.335 20.5213 26.9777 21.1047 26.3948 22.0415ZM21.5553 21.299C14.4019 22.2537 7.58443 24.5341 3.23929 28.6355C-2.99551 34.5399 3.85741 34.416 9.20908 32.1887C13.8192 30.0673 18.4821 26.0898 21.5553 21.299Z" fill="white" />
	<path d="M36.1806 4.85859C36.9401 2.96708 39.2362 -0.656947 39.8367 0.103261C40.402 1.80031 38.6886 3.2676 37.7526 5.40669C35.5094 10.498 33.7786 15.4831 32.5245 20.6097C33.019 19.2839 34.3436 16.8975 35.5977 17.2864C36.728 17.7459 35.7213 22.5367 36.9578 22.1125C37.4169 21.9711 37.2756 22.7666 36.7104 22.8196C34.9087 22.6959 35.898 18.1172 35.3503 18.0819C34.1141 17.8343 32.0121 22.9256 31.3585 25.6656C31.1995 26.4434 30.5285 26.3903 30.6521 25.0822C31.1466 20.6805 34.1139 11.0283 35.7742 6.48506C33.7253 9.75545 30.5637 14.1395 27.2431 17.5161C27.5258 17.4809 27.7908 17.463 28.0203 17.4985C28.3736 17.1625 28.762 16.862 29.2037 16.6322C30.3164 16.1196 30.5107 16.7206 29.6806 17.198C29.398 17.3748 29.1508 17.5516 28.9389 17.7459C29.6101 18.0995 29.928 18.789 30.0163 19.39C30.1753 20.5744 29.2393 22.5896 28.2324 23.2083C26.784 24.0922 26.0247 22.4305 26.2719 20.8571C26.4307 19.7964 26.89 18.8419 27.6319 17.9756C27.2964 17.9756 26.7311 18.0109 26.5369 18.0288C26.2542 18.0819 26.1835 17.6751 26.5899 17.4985C30.599 13.2909 34.1491 8.18191 36.1806 4.85859ZM28.5679 18.1699C27.7202 19.0362 27.3317 19.9732 27.1374 21.0514C26.996 21.9882 26.89 23.4026 27.9498 22.7131C28.78 22.1652 29.5925 20.6448 29.4511 19.5843C29.3096 18.7888 29.0272 18.3644 28.5679 18.1699Z" fill="white" />
	<path d="M39.307 17.4116C39.678 16.7221 40.6316 17.0758 40.0488 17.9242C39.4835 18.7905 38.6887 20.5053 38.3885 21.8664C38.8478 20.9825 40.3666 18.5429 41.2852 18.1894C41.8328 17.9419 42.186 18.3131 42.186 18.9142C42.186 19.851 41.7267 21.283 42.1153 21.4775C42.5746 21.7249 43.6696 20.2931 44.4292 18.7197C44.5882 18.4015 45.0651 18.5076 44.9768 18.7728C44.0584 20.3991 42.8396 22.2908 41.9212 22.0079C40.7025 21.5306 41.9743 18.7197 41.5502 18.7021C41.1087 18.5076 38.5477 21.9372 37.9294 23.8994C37.8234 24.2531 37.3289 24.2884 37.3996 23.4929C37.5937 21.3538 38.777 18.4547 39.307 17.4116Z" fill="white" />
	<path d="M45.6994 33.7631C45.2579 36.3971 43.2974 36.185 43.7036 33.657C44.5691 26.4973 48.4019 13.5395 51.5634 7.58189C51.8461 6.80404 52.7644 6.78639 52.3406 7.90024C50.1681 14.0168 49.179 17.0927 47.554 23.4745C51.6165 12.9032 58.7873 1.78367 63.2206 2.13712C70.3211 3.10943 58.2399 28.5833 64.1214 30.8639C66.7355 31.6418 72.0341 22.6083 74.0653 18.7192C74.242 18.3834 74.8073 18.4363 74.6128 18.79C72.2989 23.0503 67.3006 32.7025 63.5207 31.5181C56.7735 28.8664 66.5939 6.15027 63.1497 3.37485C59.6176 1.25341 48.3135 18.3126 45.6994 33.7631Z" fill="white" />
	<path d="M74.0842 19.954C73.4837 21.156 73.307 22.3228 74.1018 22.6057C76.2919 23.083 79.2063 20.3252 80.0716 18.7164C80.2306 18.4159 80.8135 18.4159 80.6192 18.7695C79.8068 20.2192 76.6629 23.7193 73.9606 23.2067C71.8588 22.7117 73.1482 18.8932 75.3559 17.1609C76.3626 16.2946 78.3939 16.4538 77.1045 17.9387C76.4686 18.6811 75.1263 19.5119 74.0842 19.954ZM74.8437 18.6633C75.6209 18.3096 76.2743 17.7088 76.4864 17.4967C77.193 16.7894 76.4688 17.0725 75.9918 17.4436C75.6033 17.7441 75.2147 18.1683 74.8437 18.6633Z" fill="white" />
	<path d="M81.7854 33.23C75.4621 31.144 81.0613 13.2716 83.5693 7.91507C82.333 7.89743 84.5938 4.36181 86.2011 2.85923C87.7023 1.25059 89.3628 2.61183 87.0665 5.42253C83.4281 10.9734 76.1865 30.8788 82.3861 32.5758C87.1903 33.6895 94.1669 22.6055 96.3924 18.7162C96.5867 18.3804 97.1341 18.4333 96.9398 18.787C94.5731 23.012 87.1901 35.0156 81.7854 33.23Z" fill="white" />
	<path d="M97.0631 22.0436C96.7983 20.6647 96.2331 19.109 96.3212 17.8893C96.3743 17.0938 96.8689 16.3867 97.328 16.2275C98.423 15.821 98.8468 17.0938 97.8754 17.5004C96.9746 18.1367 97.6458 19.7632 97.9285 21.4779C99.5888 20.3995 101.302 19.2504 101.938 18.6846C102.273 18.4725 102.662 18.667 102.256 18.9675C101.761 19.5154 99.8361 20.8237 97.999 22.0081C98.1049 23.1218 97.999 24.2356 97.1335 25.1193C95.5439 26.7103 91.3401 25.7911 94.1309 23.9173C94.4138 23.7406 95.6502 22.9628 97.0631 22.0436ZM97.1515 22.5562C95.8091 23.4225 94.6257 24.1649 94.2902 24.377C92.6122 25.5083 95.4383 25.8795 96.6748 24.7128C97.1867 24.1825 97.2574 23.4225 97.1515 22.5562Z" fill="white" />
	<path d="M106.301 21.8636C106.76 20.9797 108.279 18.5401 109.198 18.1867C109.745 17.9391 110.099 18.3104 110.099 18.9114C110.099 19.8482 109.639 21.2802 110.028 21.4747C110.487 21.7221 111.582 20.2903 112.342 18.7169C112.501 18.3988 112.978 18.5048 112.889 18.7701C111.971 20.3963 110.752 22.288 109.834 22.0052C108.615 21.5278 109.887 18.7169 109.463 18.6993C109.021 18.5048 106.46 21.9344 105.842 23.8967C105.736 24.2503 105.241 24.2856 105.312 23.4901C105.436 22.2173 105.877 20.096 106.266 18.7524C106.884 16.2952 107.591 13.8026 106.902 13.5903C105.86 13.1837 103.776 15.7294 101.921 17.5149C102.204 17.4796 102.468 17.4617 102.698 17.4972C103.052 17.1612 103.44 16.8607 103.882 16.631C104.994 16.1183 105.189 16.7194 104.358 17.1967C104.076 17.3735 103.829 17.5503 103.617 17.7446C104.288 18.0983 104.606 18.7877 104.694 19.3887C104.853 20.5732 103.917 22.5884 102.91 23.207C101.462 24.0909 100.702 22.4292 100.95 20.8558C101.108 19.7951 101.568 18.8406 102.31 17.9744C101.974 17.9744 101.409 18.0096 101.215 18.0275C100.932 18.0806 100.861 17.6738 101.268 17.4972C103.422 15.5526 105.719 12.2644 107.308 12.9893C109.286 13.8732 106.919 19.8129 106.301 21.8636ZM103.246 18.1688C102.398 19.0351 102.009 19.9721 101.815 21.0503C101.674 21.9871 101.568 23.4015 102.627 22.712C103.458 22.1641 104.27 20.6437 104.129 19.5832C103.987 18.7877 103.705 18.3633 103.246 18.1688Z" fill="white" />
	<path d="M101.044 27.9062C100.39 27.9459 99.7033 27.9962 99.0156 28.0276C96.3436 28.1492 93.6789 28.3715 91.0232 28.7108C89.0762 28.9595 87.1287 29.2128 85.1906 29.544C82.9851 29.9209 80.7818 30.3296 78.5925 30.8282C76.0282 31.4121 73.4725 32.0646 70.9262 32.7667C67.9545 33.5861 65.0257 34.6292 62.1472 35.9072C61.4035 36.2375 60.6566 36.5553 59.9115 36.8794C59.7275 36.9593 59.6047 36.9001 59.5578 36.7064C59.5079 36.5006 59.571 36.361 59.7542 36.2733C61.5016 35.4362 63.2905 34.7809 65.0955 34.2064C67.1792 33.5432 69.2657 32.8925 71.3609 32.2947C72.9641 31.8373 74.5796 31.4494 76.1954 31.0702C77.6787 30.7221 79.1673 30.4078 80.658 30.1144C82.0098 29.8484 83.3657 29.6094 84.7238 29.3968C86.4437 29.1273 88.1655 28.8719 89.8906 28.6548C92.5875 28.3155 95.2921 28.0693 98.0074 27.9816C99.0308 27.9486 100.055 27.9304 101.044 27.9062Z" fill="white" />
	<path d="M101.043 27.9062C101.043 27.9062 99.7067 27.9962 97.3687 28.1533C96.7842 28.1943 96.1372 28.2396 95.4328 28.2888C95.0801 28.3074 94.715 28.3508 94.3364 28.3936C93.9578 28.4358 93.5654 28.4793 93.1601 28.5244C92.7549 28.5694 92.3366 28.616 91.906 28.6638C91.4747 28.7136 91.0333 28.7533 90.5811 28.8277C89.6751 28.9593 88.7226 29.0978 87.7288 29.242C87.2317 29.3139 86.7243 29.3874 86.2074 29.4622C85.6887 29.5381 85.1648 29.6058 84.6331 29.7113C84.1004 29.8083 83.5588 29.9071 83.0088 30.0074C82.4593 30.1094 81.8988 30.2026 81.338 30.3278C80.7754 30.4464 80.2054 30.5664 79.6281 30.6882C79.0498 30.8081 78.4673 30.93 77.8813 31.0796C76.7085 31.3696 75.5042 31.6452 74.2904 31.9629C73.08 32.2907 71.8416 32.6056 70.6025 32.9575C69.9832 33.1418 69.3602 33.3272 68.7343 33.5137C68.1169 33.7227 67.4965 33.9327 66.8735 34.1435C66.25 34.3523 65.6386 34.6054 65.0174 34.8356C64.3941 35.0613 63.7859 35.33 63.1724 35.5889C62.5592 35.8468 61.9446 36.1096 61.3324 36.38L60.4124 36.7819L59.9441 36.986L59.8851 37.0071C59.8587 37.0142 59.8252 37.0201 59.7955 37.0245C59.7353 37.0272 59.6655 37.0188 59.6077 36.9797C59.4897 36.8997 59.4599 36.7842 59.4406 36.6905C59.4327 36.6567 59.4262 36.588 59.432 36.5353C59.4368 36.481 59.4521 36.4229 59.4812 36.3727C59.5389 36.2684 59.6341 36.2066 59.7215 36.1656L60.1794 35.9596C60.4854 35.8236 60.7884 35.6825 61.0965 35.5505C61.7211 35.3033 62.3399 35.0394 62.9718 34.8225C64.2245 34.3563 65.5031 33.9747 66.7639 33.5944C68.0255 33.212 69.2771 32.8325 70.5135 32.4577C70.8247 32.3659 71.1261 32.2665 71.4429 32.1816C71.7542 32.1033 72.0644 32.0253 72.3735 31.9476C72.9918 31.7922 73.6058 31.6379 74.2145 31.4848C74.8232 31.3318 75.427 31.1801 76.025 31.0297C76.6322 30.889 77.2268 30.7714 77.8187 30.6429C78.4096 30.5175 78.9942 30.3934 79.5719 30.2707C80.1471 30.1483 80.7221 30.0204 81.2901 29.9303C82.4236 29.7322 83.5266 29.5396 84.5931 29.3532C85.6657 29.1998 86.7021 29.0516 87.6969 28.9093C88.1942 28.8387 88.6811 28.7696 89.1568 28.7023C89.3948 28.6686 89.6299 28.6352 89.8621 28.6024C90.0963 28.5782 90.3274 28.5543 90.5558 28.5305C91.4665 28.4382 92.3305 28.351 93.1423 28.2687C93.9526 28.1707 94.7179 28.15 95.4231 28.1074C96.1286 28.0691 96.7764 28.0338 97.3618 28.002C97.9466 27.9624 98.4698 27.9577 98.9249 27.9488C99.38 27.9398 99.7668 27.9321 100.081 27.926C100.708 27.9128 101.043 27.9062 101.043 27.9062ZM101.043 27.9062C101.043 27.9062 100.708 27.9162 100.081 27.9352C99.767 27.9446 99.3802 27.9563 98.9253 27.9699C98.4704 27.9834 97.9473 27.9937 97.3633 28.0392C96.7789 28.0769 96.132 28.1189 95.4274 28.1646C94.7235 28.2144 93.9605 28.2426 93.1507 28.3493C92.3397 28.4398 91.4767 28.5361 90.5669 28.6375C90.34 28.6628 90.1105 28.6883 89.8779 28.7142C89.6456 28.748 89.4105 28.7821 89.1727 28.8168C88.6972 28.8861 88.2105 28.9566 87.7136 29.0289C86.7207 29.1745 85.6864 29.3262 84.6157 29.4832C83.5497 29.6733 82.4476 29.8699 81.3146 30.072C80.7459 30.1646 80.1826 30.2922 79.603 30.4176C79.0258 30.5422 78.4416 30.6684 77.8511 30.796C77.2626 30.9256 76.6589 31.0478 76.0655 31.1874C75.468 31.3398 74.8648 31.4936 74.2567 31.649C73.6485 31.8041 73.0351 31.9606 72.4174 32.1183C72.1085 32.1971 71.7985 32.2761 71.4875 32.3555C71.1846 32.4378 70.874 32.541 70.5659 32.6332C69.3307 33.0123 68.0805 33.3963 66.8203 33.7833C65.5587 34.1688 64.2904 34.5523 63.0436 35.0212C62.4142 35.2399 61.8037 35.5032 61.185 35.7502C60.8786 35.8825 60.5751 36.025 60.2699 36.1621L59.8127 36.3696C59.6813 36.4316 59.6337 36.5111 59.6606 36.6515C59.6713 36.7186 59.7 36.7773 59.7257 36.7906C59.7372 36.8005 59.7546 36.8011 59.7773 36.8023C59.7886 36.799 59.7968 36.7994 59.811 36.7969L59.8702 36.776L60.3232 36.58L61.2444 36.1813C61.857 35.9134 62.4725 35.6527 63.0898 35.3956C63.7062 35.138 64.3175 34.8707 64.9434 34.6463C65.5677 34.4175 66.1812 34.1661 66.8086 33.9584C69.297 33.0588 71.82 32.4439 74.2498 31.7992C75.4659 31.4854 76.6702 31.2142 77.8444 30.9285C78.4299 30.7812 79.018 30.6602 79.5964 30.5424C80.1751 30.4226 80.7469 30.3042 81.311 30.1875C81.8739 30.0639 82.434 29.9727 82.9841 29.8727C83.5344 29.7744 84.0765 29.6775 84.6093 29.5824C85.1405 29.479 85.6732 29.4119 86.1884 29.3383C86.7058 29.2652 87.2133 29.1937 87.7106 29.1235C88.7052 28.9837 89.6583 28.8498 90.5648 28.7225C91.017 28.6529 91.4646 28.617 91.8951 28.5717C92.3268 28.5282 92.7459 28.4858 93.1523 28.445C93.5585 28.4039 93.9515 28.3644 94.3311 28.3261C94.7104 28.2871 95.076 28.2476 95.4288 28.2325C96.1337 28.1903 96.7812 28.1515 97.366 28.1166C99.7059 27.9824 101.043 27.9062 101.043 27.9062Z" fill="white" />
	<path d="M33.3494 41.0391V44.3461H33.0143V41.7005L31.7163 43.9255H31.5512L30.2532 41.7145V44.3459H29.9181V41.0391H30.2061L31.641 43.4909L33.0618 41.0391H33.3494Z" fill="white" />
	<path d="M36.9372 42.8074V44.3476H36.6163V43.9602C36.4653 44.2153 36.1725 44.3712 35.7619 44.3712C35.2003 44.3712 34.8556 44.0784 34.8556 43.6484C34.8556 43.2658 35.101 42.9446 35.8138 42.9446H36.6021V42.7934C36.6021 42.3683 36.3614 42.1368 35.8989 42.1368C35.5779 42.1368 35.2758 42.2501 35.0729 42.4296L34.9219 42.1792C35.1721 41.9665 35.5402 41.8438 35.932 41.8438C36.5739 41.8438 36.9372 42.165 36.9372 42.8074ZM36.6021 43.6012V43.1948H35.8232C35.3417 43.1948 35.1859 43.3837 35.1859 43.639C35.1859 43.9272 35.4172 44.1067 35.8136 44.1067C36.1915 44.1067 36.4701 43.9272 36.6021 43.6012Z" fill="white" />
	<path d="M38.213 44.064L38.364 43.7995C38.5623 43.9554 38.8974 44.0782 39.2467 44.0782C39.7187 44.0782 39.9122 43.9174 39.9122 43.672C39.9122 43.0247 38.3027 43.535 38.3027 42.5524C38.3027 42.1462 38.652 41.8438 39.2845 41.8438C39.6054 41.8438 39.9547 41.9335 40.1624 42.0752L40.016 42.3445C39.7989 42.1934 39.5393 42.1318 39.2845 42.1318C38.8361 42.1318 38.6378 42.3065 38.6378 42.5428C38.6378 43.2136 40.2473 42.7081 40.2473 43.6624C40.2473 44.0923 39.8696 44.371 39.223 44.371C38.8123 44.371 38.4159 44.2387 38.213 44.064Z" fill="white" />
	<path d="M42.8802 44.1935C42.748 44.3116 42.5499 44.3682 42.3564 44.3682C41.889 44.3682 41.6294 44.1037 41.6294 43.6454V42.1432H41.1856V41.8597H41.6294V41.3164H41.9645V41.8597H42.7197V42.1432H41.9645V43.6266C41.9645 43.9194 42.1155 44.0801 42.3941 44.0801C42.5309 44.0801 42.6679 44.0376 42.7622 43.9526L42.8802 44.1935Z" fill="white" />
	<path d="M46.2697 43.2092H44.1928C44.2306 43.7289 44.627 44.0737 45.1699 44.0737C45.472 44.0737 45.741 43.965 45.9298 43.7477L46.1185 43.965C45.8966 44.2295 45.5521 44.3712 45.1603 44.3712C44.3862 44.3712 43.8575 43.8421 43.8575 43.1051C43.8575 42.3681 44.372 41.8438 45.0706 41.8438C45.7692 41.8438 46.2743 42.3587 46.2743 43.1051C46.2743 43.1336 46.2697 43.1714 46.2697 43.2092ZM44.1928 42.9589H45.9533C45.9108 42.4724 45.5569 42.1322 45.0706 42.1322C44.5893 42.1322 44.2354 42.4722 44.1928 42.9589Z" fill="white" />
	<path d="M48.9189 41.8438V42.1698C48.8905 42.1698 48.8622 42.165 48.8386 42.165C48.3193 42.165 48.0032 42.4956 48.0032 43.0815V44.3476H47.6681V41.8627H47.989V42.3493C48.1448 42.0186 48.4609 41.8438 48.9189 41.8438Z" fill="white" />
	<path d="M54.8718 42.1729C54.8718 42.8767 54.3621 43.3019 53.5219 43.3019H52.6346V44.3459H52.2853V41.0391H53.5219C54.3621 41.0391 54.8718 41.4642 54.8718 42.1729ZM54.5225 42.1729C54.5225 41.6437 54.1732 41.3413 53.5123 41.3413H52.6344V42.9948H53.5123C54.1732 42.995 54.5225 42.6926 54.5225 42.1729Z" fill="white" />
	<path d="M58.4123 43.2092H56.3354C56.3732 43.7289 56.7696 44.0737 57.3124 44.0737C57.6146 44.0737 57.8836 43.965 58.0724 43.7477L58.2611 43.965C58.0392 44.2295 57.6947 44.3712 57.3028 44.3712C56.5287 44.3712 56.0001 43.8421 56.0001 43.1051C56.0001 42.3681 56.5146 41.8438 57.2132 41.8438C57.9118 41.8438 58.4169 42.3587 58.4169 43.1051C58.4171 43.1336 58.4123 43.1714 58.4123 43.2092ZM56.3356 42.9589H58.0961C58.0536 42.4724 57.6997 42.1322 57.2134 42.1322C56.732 42.1322 56.3779 42.4722 56.3356 42.9589Z" fill="white" />
	<path d="M62.0952 42.9068V44.3476H61.7601V42.9398C61.7601 42.4154 61.4863 42.1462 61.0143 42.1462C60.4809 42.1462 60.1458 42.4768 60.1458 43.0437V44.3476H59.8106V41.8627H60.1316V42.3209C60.3109 42.0185 60.6461 41.8438 61.0757 41.8438C61.6798 41.8438 62.0952 42.1934 62.0952 42.9068Z" fill="white" />
	<path d="M63.4728 43.1051C63.4728 42.3635 64.0108 41.8438 64.7519 41.8438C65.172 41.8438 65.5261 42.0091 65.7244 42.3351L65.4741 42.5052C65.3042 42.2547 65.0399 42.1368 64.7519 42.1368C64.2091 42.1368 63.8127 42.5242 63.8127 43.1053C63.8127 43.6911 64.2091 44.0737 64.7519 44.0737C65.0399 44.0737 65.3042 43.9604 65.4741 43.7099L65.7244 43.8801C65.5261 44.2013 65.1721 44.3714 64.7519 44.3714C64.0108 44.3712 63.4728 43.8469 63.4728 43.1051Z" fill="white" />
	<path d="M67.0147 41.0761C67.0147 40.9486 67.1234 40.8398 67.2603 40.8398C67.3973 40.8398 67.506 40.9438 67.506 41.0713C67.506 41.2082 67.402 41.317 67.2603 41.317C67.1232 41.3172 67.0147 41.2084 67.0147 41.0761ZM67.0902 41.8605H67.4256V44.3454H67.0902V41.8605Z" fill="white" />
	<path d="M69.0685 40.8398H69.4039V44.3452H69.0685V40.8398Z" fill="white" />
	<path d="M75.134 43.4628H73.2932L72.8968 44.3461H72.5333L74.0438 41.0391H74.3883L75.8987 44.3461H75.5307L75.134 43.4628ZM75.0066 43.1793L74.2137 41.403L73.4208 43.1793H75.0066Z" fill="white" />
	<path d="M78.3359 41.8438V42.1698C78.3075 42.1698 78.2792 42.165 78.2556 42.165C77.7363 42.165 77.4202 42.4956 77.4202 43.0815V44.3476H77.0851V41.8627H77.406V42.3493C77.5618 42.0186 77.8781 41.8438 78.3359 41.8438Z" fill="white" />
	<path d="M81.0638 44.1935C80.9316 44.3116 80.7335 44.3682 80.54 44.3682C80.0726 44.3682 79.813 44.1037 79.813 43.6454V42.1432H79.3692V41.8597H79.813V41.3164H80.1481V41.8597H80.9033V42.1432H80.1481V43.6266C80.1481 43.9194 80.2991 44.0801 80.5777 44.0801C80.7145 44.0801 80.8515 44.0376 80.9458 43.9526L81.0638 44.1935Z" fill="white" />
	<path d="M82.3058 41.0761C82.3058 40.9486 82.4145 40.8398 82.5514 40.8398C82.6884 40.8398 82.7971 40.9438 82.7971 41.0713C82.7971 41.2082 82.6932 41.317 82.5514 41.317C82.4143 41.3172 82.3058 41.2084 82.3058 41.0761ZM82.3813 41.8605H82.7167V44.3454H82.3813V41.8605Z" fill="white" />
	<path d="M84.0147 44.064L84.1657 43.7995C84.364 43.9554 84.6992 44.0782 85.0485 44.0782C85.5204 44.0782 85.7139 43.9174 85.7139 43.672C85.7139 43.0247 84.1044 43.535 84.1044 42.5524C84.1044 42.1462 84.4537 41.8438 85.0862 41.8438C85.4072 41.8438 85.7565 41.9335 85.9642 42.0752L85.8178 42.3445C85.6007 42.1934 85.3411 42.1318 85.0862 42.1318C84.6379 42.1318 84.4395 42.3065 84.4395 42.5428C84.4395 43.2136 86.0491 42.7081 86.0491 43.6624C86.0491 44.0923 85.6714 44.371 85.0247 44.371C84.6143 44.371 84.2177 44.2387 84.0147 44.064Z" fill="white" />
	<path d="M88.683 44.1935C88.5508 44.3116 88.3526 44.3682 88.1591 44.3682C87.6918 44.3682 87.4321 44.1037 87.4321 43.6454V42.1432H86.9884V41.8597H87.4321V41.3164H87.7673V41.8597H88.5224V42.1432H87.7673V43.6266C87.7673 43.9194 87.9183 44.0801 88.1969 44.0801C88.3337 44.0801 88.4707 44.0376 88.565 43.9526L88.683 44.1935Z" fill="white" />
</svg>
