<svg width="32" height="32" viewBox="0 0 32 32" fill="none" xmlns="http://www.w3.org/2000/svg">
	<path d="M13.3333 23.9997H7.21895C6.86533 23.9997 6.52619 24.1402 6.27614 24.3902C5.43619 25.2302 4 24.6353 4 23.4474V18.6663C4 15.7208 6.38781 13.333 9.33333 13.333H13.3333C16.2788 13.333 18.6667 15.7208 18.6667 18.6663C18.6667 21.6119 16.2789 23.9997 13.3333 23.9997Z" stroke="#4B3425" stroke-width="2.66667" stroke-linejoin="round" />
	<path d="M21.3333 15.9997H22.6667C25.6122 15.9997 28 13.6119 28 10.6663V10.6663C28 7.72082 25.6122 5.33301 22.6667 5.33301H17.3333C14.3878 5.33301 12 7.72082 12 10.6663V10.6663" stroke="#4B3425" stroke-width="2.66667" stroke-linejoin="round" />
	<circle cx="9.33333" cy="18.6663" r="1.33333" fill="#4B3425" />
	<circle cx="13.3333" cy="18.6663" r="1.33333" fill="#4B3425" />
</svg>
