<svg width="55" height="51" viewBox="0 0 55 51" fill="none" xmlns="http://www.w3.org/2000/svg">
	<ellipse cx="27.5" cy="25.5" rx="27.5" ry="25.5" fill="white" />
	<path d="M17.667 35.6663C17.667 34.4407 17.9084 33.227 18.3775 32.0946C18.8465 30.9623 19.534 29.9334 20.4007 29.0667C21.2673 28.2 22.2962 27.5125 23.4286 27.0435C24.561 26.5744 25.7747 26.333 27.0003 26.333C28.226 26.333 29.4397 26.5744 30.572 27.0435C31.7044 27.5125 32.7333 28.2 33.6 29.0667C34.4667 29.9334 35.1542 30.9623 35.6232 32.0946C36.0922 33.227 36.3337 34.4407 36.3337 35.6663" stroke="#278798" stroke-width="2.66667" stroke-linejoin="round" />
	<rect x="21.667" y="15.667" width="10.6667" height="10.6667" rx="5.33333" stroke="#278798" stroke-width="2.66667" stroke-linejoin="round" />
</svg>
