<svg xmlns="http://www.w3.org/2000/svg" width="761.311" height="595.549" viewBox="0 0 761.311 595.549"><g id="Group_380" data-name="Group 380" transform="translate(-8775.409 735)"><path id="Path_44" data-name="Path 44" d="M24.611,7.443a1.468,1.468,0,0,0-1.467-1.469H12.276V-6.64a1.468,1.468,0,0,0-1.467-1.469h-23.82A1.468,1.468,0,0,0-14.478-6.64V5.974H-25.347a1.468,1.468,0,0,0-1.467,1.469,1.466,1.466,0,0,0,1.467,1.465h1.379V38.869A1.469,1.469,0,0,0-22.5,40.338H20.3a1.467,1.467,0,0,0,1.465-1.469V8.908h1.381a1.466,1.466,0,0,0,1.467-1.465M.356,37.4a1.585,1.585,0,0,0,.01-.165V35.029H6.131V37.4Zm-8.69-2.372h5.765v2.207a1.585,1.585,0,0,0,.01.165H-8.334ZM9.341,5.974H-11.544V-5.173H9.341ZM18.829,37.4H9.065v-3.84A1.467,1.467,0,0,0,7.6,32.095H-9.8a1.467,1.467,0,0,0-1.467,1.467V37.4h-9.764V8.908H18.829ZM11.815,14.577v2.549a1.468,1.468,0,0,0,2.936,0V14.577a1.468,1.468,0,0,0-2.936,0m0,8.193v2.547a1.468,1.468,0,0,0,2.936,0V22.77a1.468,1.468,0,1,0-2.936,0M8.883,25.317V22.77a1.468,1.468,0,1,0-2.936,0v2.547a1.468,1.468,0,0,0,2.936,0m0-8.191V14.577a1.468,1.468,0,0,0-2.936,0v2.549a1.468,1.468,0,0,0,2.936,0M3.011,25.317V22.77a1.468,1.468,0,1,0-2.936,0v2.547a1.468,1.468,0,0,0,2.936,0m0-8.191V14.577a1.468,1.468,0,0,0-2.936,0v2.549a1.468,1.468,0,0,0,2.936,0m-5.288,8.191V22.77A1.469,1.469,0,0,0-3.746,21.3,1.468,1.468,0,0,0-5.213,22.77v2.547a1.467,1.467,0,0,0,1.467,1.467,1.469,1.469,0,0,0,1.469-1.467m0-8.191V14.577A1.469,1.469,0,0,0-3.746,13.11a1.467,1.467,0,0,0-1.467,1.467v2.549a1.467,1.467,0,0,0,1.467,1.467,1.469,1.469,0,0,0,1.469-1.467m-5.871,8.191V22.77A1.469,1.469,0,0,0-9.617,21.3a1.469,1.469,0,0,0-1.467,1.469v2.547a1.468,1.468,0,0,0,1.467,1.467,1.469,1.469,0,0,0,1.469-1.467m0-8.191V14.577A1.469,1.469,0,0,0-9.617,13.11a1.468,1.468,0,0,0-1.467,1.467v2.549a1.468,1.468,0,0,0,1.467,1.467,1.469,1.469,0,0,0,1.469-1.467m-5.872,8.191V22.77A1.468,1.468,0,0,0-15.487,21.3a1.469,1.469,0,0,0-1.469,1.469v2.547a1.469,1.469,0,0,0,1.469,1.467,1.468,1.468,0,0,0,1.467-1.467m0-8.191V14.577a1.467,1.467,0,0,0-1.467-1.467,1.469,1.469,0,0,0-1.469,1.467v2.549a1.469,1.469,0,0,0,1.469,1.467,1.468,1.468,0,0,0,1.467-1.467M-8.441-.413V2.136A1.467,1.467,0,0,0-6.972,3.6,1.467,1.467,0,0,0-5.5,2.136V-.413A1.467,1.467,0,0,0-6.972-1.88,1.468,1.468,0,0,0-8.441-.413m5.872,0V2.136A1.467,1.467,0,0,0-1.1,3.6,1.467,1.467,0,0,0,.368,2.136V-.413A1.468,1.468,0,0,0-1.1-1.88,1.467,1.467,0,0,0-2.569-.413m5.871,0V2.136a1.467,1.467,0,0,0,2.934,0V-.413A1.466,1.466,0,0,0,4.769-1.88,1.467,1.467,0,0,0,3.3-.413" transform="translate(8816.877 -314.594)" fill="#707070"></path><path id="Path_50" data-name="Path 50" d="M0,0V437.9" transform="translate(8776.368 -735)" fill="none" stroke="#c5cacc" stroke-width="1"></path><path id="Path_56" data-name="Path 56" d="M3.58,9.84H84.312V-113.007H3.58Z" transform="translate(8771.829 -149.291)" fill="#c5cacc"></path><path id="Path_117" data-name="Path 117" d="M10.44-8.982h1.71a4.782,4.782,0,0,0-.612-1.809,4.451,4.451,0,0,0-1.17-1.3,5.129,5.129,0,0,0-1.6-.792,6.606,6.606,0,0,0-1.908-.27,6.15,6.15,0,0,0-2.619.531,5.413,5.413,0,0,0-1.908,1.449A6.355,6.355,0,0,0,1.17-9.027a8.574,8.574,0,0,0-.4,2.637,9.062,9.062,0,0,0,.369,2.628A6.07,6.07,0,0,0,2.25-1.638,5.126,5.126,0,0,0,4.1-.225a6.2,6.2,0,0,0,2.61.513A5.416,5.416,0,0,0,10.6-1.062a5.838,5.838,0,0,0,1.674-3.78h-1.71a4.9,4.9,0,0,1-.324,1.476,3.562,3.562,0,0,1-.747,1.179,3.4,3.4,0,0,1-1.134.774,3.815,3.815,0,0,1-1.5.279,4.23,4.23,0,0,1-1.98-.432A3.867,3.867,0,0,1,3.519-2.727a4.973,4.973,0,0,1-.783-1.71,8.328,8.328,0,0,1-.252-2.079A7.445,7.445,0,0,1,2.736-8.46a5.011,5.011,0,0,1,.783-1.665,3.89,3.89,0,0,1,1.35-1.161,4.175,4.175,0,0,1,1.971-.432,3.972,3.972,0,0,1,2.331.684A3.179,3.179,0,0,1,10.44-8.982Zm5.184,4.338a4.63,4.63,0,0,1,.225-1.5,3.244,3.244,0,0,1,.621-1.107,2.645,2.645,0,0,1,.927-.684,2.759,2.759,0,0,1,1.125-.234,2.759,2.759,0,0,1,1.125.234,2.645,2.645,0,0,1,.927.684,3.244,3.244,0,0,1,.621,1.107,4.63,4.63,0,0,1,.225,1.5,4.63,4.63,0,0,1-.225,1.5,3.145,3.145,0,0,1-.621,1.1,2.7,2.7,0,0,1-.927.675,2.759,2.759,0,0,1-1.125.234A2.759,2.759,0,0,1,17.4-1.368a2.7,2.7,0,0,1-.927-.675,3.145,3.145,0,0,1-.621-1.1A4.63,4.63,0,0,1,15.624-4.644Zm-1.62,0a6.113,6.113,0,0,0,.288,1.908A4.355,4.355,0,0,0,15.156-1.2,3.975,3.975,0,0,0,16.578-.171,4.822,4.822,0,0,0,18.522.2a4.806,4.806,0,0,0,1.953-.369A3.993,3.993,0,0,0,21.888-1.2a4.355,4.355,0,0,0,.864-1.539,6.113,6.113,0,0,0,.288-1.908,6.2,6.2,0,0,0-.288-1.917,4.343,4.343,0,0,0-.864-1.548,4.091,4.091,0,0,0-1.413-1.035,4.706,4.706,0,0,0-1.953-.378,4.722,4.722,0,0,0-1.944.378,4.07,4.07,0,0,0-1.422,1.035,4.343,4.343,0,0,0-.864,1.548A6.2,6.2,0,0,0,14-4.644ZM25.2-9.306V0h1.53V-5.8a2.221,2.221,0,0,1,.135-.675,2.6,2.6,0,0,1,.432-.783,2.59,2.59,0,0,1,.774-.648,2.285,2.285,0,0,1,1.143-.27,2.057,2.057,0,0,1,.855.153,1.3,1.3,0,0,1,.531.432,1.757,1.757,0,0,1,.279.657,3.955,3.955,0,0,1,.081.828V0h1.53V-5.8a2.335,2.335,0,0,1,.648-1.728,2.408,2.408,0,0,1,1.782-.648,2.182,2.182,0,0,1,.909.162,1.348,1.348,0,0,1,.549.441,1.654,1.654,0,0,1,.27.657,4.328,4.328,0,0,1,.072.81V0h1.53V-6.822a3.058,3.058,0,0,0-.225-1.233,2.163,2.163,0,0,0-.63-.837,2.632,2.632,0,0,0-.972-.477,4.872,4.872,0,0,0-1.269-.153,3.479,3.479,0,0,0-1.683.414,3.249,3.249,0,0,0-1.233,1.17,2.016,2.016,0,0,0-.99-1.224,3.381,3.381,0,0,0-1.566-.36,3.384,3.384,0,0,0-3.006,1.584H26.64V-9.306Zm15.714,0V0h1.53V-5.8a2.221,2.221,0,0,1,.135-.675,2.6,2.6,0,0,1,.432-.783,2.59,2.59,0,0,1,.774-.648,2.285,2.285,0,0,1,1.143-.27,2.057,2.057,0,0,1,.855.153,1.3,1.3,0,0,1,.531.432,1.757,1.757,0,0,1,.279.657,3.955,3.955,0,0,1,.081.828V0H48.2V-5.8a2.335,2.335,0,0,1,.648-1.728,2.408,2.408,0,0,1,1.782-.648,2.182,2.182,0,0,1,.909.162,1.348,1.348,0,0,1,.549.441,1.654,1.654,0,0,1,.27.657,4.328,4.328,0,0,1,.072.81V0h1.53V-6.822a3.058,3.058,0,0,0-.225-1.233,2.163,2.163,0,0,0-.63-.837,2.632,2.632,0,0,0-.972-.477,4.872,4.872,0,0,0-1.269-.153,3.479,3.479,0,0,0-1.683.414,3.249,3.249,0,0,0-1.233,1.17,2.016,2.016,0,0,0-.99-1.224,3.381,3.381,0,0,0-1.566-.36A3.384,3.384,0,0,0,42.39-7.938h-.036V-9.306ZM63.09-5.544H57.744a3.187,3.187,0,0,1,.234-1.017,2.713,2.713,0,0,1,.54-.837,2.473,2.473,0,0,1,.819-.567,2.664,2.664,0,0,1,1.071-.207,2.617,2.617,0,0,1,1.053.207,2.649,2.649,0,0,1,.828.558,2.622,2.622,0,0,1,.558.837A3.13,3.13,0,0,1,63.09-5.544Zm1.476,2.592H63.054a2.176,2.176,0,0,1-.819,1.368,2.648,2.648,0,0,1-1.593.45,3.169,3.169,0,0,1-1.314-.252,2.575,2.575,0,0,1-.918-.675,2.63,2.63,0,0,1-.522-.972,3.694,3.694,0,0,1-.144-1.161H64.71a7.409,7.409,0,0,0-.153-1.782A5.158,5.158,0,0,0,63.873-7.7a4.076,4.076,0,0,0-1.314-1.305A3.818,3.818,0,0,0,60.5-9.522a4.232,4.232,0,0,0-1.755.36,4.125,4.125,0,0,0-1.386,1.008,4.646,4.646,0,0,0-.909,1.53,5.6,5.6,0,0,0-.324,1.944,7.459,7.459,0,0,0,.315,1.962,4.282,4.282,0,0,0,.837,1.548A3.815,3.815,0,0,0,58.653-.162,4.78,4.78,0,0,0,60.588.2a4.224,4.224,0,0,0,2.628-.792A3.719,3.719,0,0,0,64.566-2.952ZM66.6-9.306V0h1.53V-4.14a6.362,6.362,0,0,1,.18-1.593,3.053,3.053,0,0,1,.576-1.179A2.469,2.469,0,0,1,69.93-7.65,4.327,4.327,0,0,1,71.5-7.9v-1.62a3.439,3.439,0,0,0-2.052.5,4.145,4.145,0,0,0-1.368,1.674H68.04V-9.306ZM79-6.318h1.584a3.678,3.678,0,0,0-.432-1.431,3.194,3.194,0,0,0-.873-1,3.616,3.616,0,0,0-1.224-.585,5.624,5.624,0,0,0-1.485-.189,4.5,4.5,0,0,0-1.926.387,3.844,3.844,0,0,0-1.377,1.062,4.517,4.517,0,0,0-.819,1.584,6.829,6.829,0,0,0-.27,1.953,6.27,6.27,0,0,0,.279,1.917,4.2,4.2,0,0,0,.828,1.5,3.648,3.648,0,0,0,1.368.972A4.847,4.847,0,0,0,76.536.2a4.043,4.043,0,0,0,2.817-.936A4.286,4.286,0,0,0,80.64-3.4H79.074a2.682,2.682,0,0,1-.783,1.674,2.5,2.5,0,0,1-1.773.594,2.533,2.533,0,0,1-1.242-.288,2.417,2.417,0,0,1-.846-.765,3.377,3.377,0,0,1-.477-1.089,5.176,5.176,0,0,1-.153-1.26,6.33,6.33,0,0,1,.144-1.359,3.408,3.408,0,0,1,.477-1.161,2.471,2.471,0,0,1,.891-.81A2.853,2.853,0,0,1,76.7-8.172a2.322,2.322,0,0,1,1.548.486A2.332,2.332,0,0,1,79-6.318ZM84.33-10.98v-1.872H82.8v1.872ZM82.8-9.306V0h1.53V-9.306ZM95.31-.036a2.164,2.164,0,0,1-1.1.234,1.317,1.317,0,0,1-.945-.333,1.448,1.448,0,0,1-.351-1.089A3.66,3.66,0,0,1,91.449-.135,4.849,4.849,0,0,1,89.64.2a4.846,4.846,0,0,1-1.2-.144,2.783,2.783,0,0,1-.981-.45,2.16,2.16,0,0,1-.657-.8,2.7,2.7,0,0,1-.243-1.2,2.733,2.733,0,0,1,.27-1.3,2.356,2.356,0,0,1,.711-.819,3.258,3.258,0,0,1,1.008-.477q.567-.162,1.161-.27.63-.126,1.2-.189a6.669,6.669,0,0,0,1-.18,1.665,1.665,0,0,0,.684-.342.835.835,0,0,0,.252-.657,1.527,1.527,0,0,0-.189-.81,1.3,1.3,0,0,0-.486-.468,1.976,1.976,0,0,0-.666-.216,5.029,5.029,0,0,0-.729-.054,3.236,3.236,0,0,0-1.62.369,1.566,1.566,0,0,0-.7,1.395h-1.53a3.3,3.3,0,0,1,.36-1.458,2.73,2.73,0,0,1,.864-.963,3.625,3.625,0,0,1,1.233-.531,6.512,6.512,0,0,1,1.485-.162,8.711,8.711,0,0,1,1.251.09,3.27,3.27,0,0,1,1.125.369,2.157,2.157,0,0,1,.81.783,2.506,2.506,0,0,1,.306,1.314v4.788a3.581,3.581,0,0,0,.063.792q.063.252.423.252a1.515,1.515,0,0,0,.468-.09Zm-2.484-4.77a1.9,1.9,0,0,1-.756.315q-.468.1-.981.162t-1.035.144a3.805,3.805,0,0,0-.936.261,1.7,1.7,0,0,0-.675.513,1.437,1.437,0,0,0-.261.909,1.244,1.244,0,0,0,.153.639,1.275,1.275,0,0,0,.4.423,1.661,1.661,0,0,0,.567.234,3.146,3.146,0,0,0,.684.072,3.624,3.624,0,0,0,1.3-.207,2.726,2.726,0,0,0,.882-.522,2.059,2.059,0,0,0,.5-.684,1.73,1.73,0,0,0,.162-.693Zm4.356-8.046V0h1.53V-12.852Z" transform="translate(8788.699 -716.908)" fill="#4c4c4f"></path><path id="Path_118" data-name="Path 118" d="M1.326-12.138V0H2.941V-5.185H6.885a2.144,2.144,0,0,1,.952.179,1.594,1.594,0,0,1,.578.476,1.973,1.973,0,0,1,.323.7q.1.4.17.842a5.925,5.925,0,0,1,.1.9q.017.459.034.859A5.239,5.239,0,0,0,9.12-.51,1.014,1.014,0,0,0,9.35,0h1.8a2.075,2.075,0,0,1-.383-.705,5.529,5.529,0,0,1-.2-.841,7.826,7.826,0,0,1-.085-.9q-.017-.459-.051-.9a7.813,7.813,0,0,0-.145-.85A2.58,2.58,0,0,0,10-4.938a1.863,1.863,0,0,0-.527-.569,2.163,2.163,0,0,0-.858-.34v-.034a2.581,2.581,0,0,0,1.606-1.139,3.684,3.684,0,0,0,.5-1.938,2.926,2.926,0,0,0-.977-2.329,4,4,0,0,0-2.711-.85ZM6.307-6.545H2.941v-4.233H6.953A2.1,2.1,0,0,1,8.6-10.2a2.178,2.178,0,0,1,.51,1.5,2.227,2.227,0,0,1-.23,1.08,1.816,1.816,0,0,1-.612.663,2.337,2.337,0,0,1-.893.332A6.51,6.51,0,0,1,6.307-6.545ZM19.176-5.236H14.127a3.01,3.01,0,0,1,.221-.96,2.562,2.562,0,0,1,.51-.791,2.336,2.336,0,0,1,.773-.535,2.516,2.516,0,0,1,1.012-.2,2.472,2.472,0,0,1,.995.2A2.5,2.5,0,0,1,18.42-7a2.477,2.477,0,0,1,.527.791A2.956,2.956,0,0,1,19.176-5.236ZM20.57-2.788H19.142A2.055,2.055,0,0,1,18.368-1.5a2.5,2.5,0,0,1-1.5.425,2.993,2.993,0,0,1-1.241-.238,2.432,2.432,0,0,1-.867-.638,2.483,2.483,0,0,1-.493-.918,3.489,3.489,0,0,1-.136-1.1h6.579a7,7,0,0,0-.145-1.683,4.872,4.872,0,0,0-.646-1.632,3.849,3.849,0,0,0-1.241-1.233,3.606,3.606,0,0,0-1.946-.484,4,4,0,0,0-1.658.34,3.9,3.9,0,0,0-1.309.952A4.388,4.388,0,0,0,12.9-6.256,5.289,5.289,0,0,0,12.6-4.42a7.045,7.045,0,0,0,.3,1.853,4.044,4.044,0,0,0,.79,1.462,3.6,3.6,0,0,0,1.3.952,4.515,4.515,0,0,0,1.828.34A3.989,3.989,0,0,0,19.3-.561,3.512,3.512,0,0,0,20.57-2.788ZM30.328-.034a2.044,2.044,0,0,1-1.037.221A1.243,1.243,0,0,1,28.4-.127a1.367,1.367,0,0,1-.331-1.029A3.457,3.457,0,0,1,26.681-.127a4.58,4.58,0,0,1-1.708.315,4.577,4.577,0,0,1-1.13-.136,2.629,2.629,0,0,1-.927-.425A2.04,2.04,0,0,1,22.3-1.13a2.545,2.545,0,0,1-.229-1.13,2.582,2.582,0,0,1,.255-1.224,2.225,2.225,0,0,1,.671-.774,3.077,3.077,0,0,1,.952-.451q.536-.153,1.1-.255.6-.119,1.131-.179a6.3,6.3,0,0,0,.944-.17,1.572,1.572,0,0,0,.646-.323A.789.789,0,0,0,28-6.256a1.442,1.442,0,0,0-.179-.765,1.224,1.224,0,0,0-.459-.442,1.866,1.866,0,0,0-.629-.2,4.75,4.75,0,0,0-.688-.051,3.056,3.056,0,0,0-1.53.349,1.479,1.479,0,0,0-.663,1.317H22.406a3.121,3.121,0,0,1,.34-1.377,2.578,2.578,0,0,1,.816-.91,3.424,3.424,0,0,1,1.165-.5,6.15,6.15,0,0,1,1.4-.153,8.227,8.227,0,0,1,1.181.085,3.088,3.088,0,0,1,1.063.349,2.037,2.037,0,0,1,.765.739,2.367,2.367,0,0,1,.289,1.241v4.522a3.382,3.382,0,0,0,.059.748q.06.238.4.238a1.431,1.431,0,0,0,.442-.085ZM27.982-4.539a1.8,1.8,0,0,1-.714.3q-.442.093-.927.153t-.977.136a3.594,3.594,0,0,0-.884.247,1.608,1.608,0,0,0-.637.484,1.357,1.357,0,0,0-.247.859,1.175,1.175,0,0,0,.145.6,1.2,1.2,0,0,0,.374.4,1.569,1.569,0,0,0,.535.221,2.971,2.971,0,0,0,.646.068,3.423,3.423,0,0,0,1.224-.2,2.575,2.575,0,0,0,.833-.493,1.945,1.945,0,0,0,.476-.646,1.634,1.634,0,0,0,.153-.655Zm4.114-7.6V0h1.445V-12.138Zm9.333,0V0h8.432V-1.36H43.044v-4.2h6.307v-1.36H43.044v-3.859H49.81v-1.36ZM52.8-2.771H51.357a3.18,3.18,0,0,0,.34,1.386,2.557,2.557,0,0,0,.816.918,3.42,3.42,0,0,0,1.173.5A6.183,6.183,0,0,0,55.08.187,7.14,7.14,0,0,0,56.415.06a3.624,3.624,0,0,0,1.207-.451,2.591,2.591,0,0,0,.867-.85,2.448,2.448,0,0,0,.331-1.326,2.072,2.072,0,0,0-.246-1.054,2.2,2.2,0,0,0-.646-.705,3.464,3.464,0,0,0-.918-.451,10.851,10.851,0,0,0-1.062-.289q-.51-.119-1.02-.23a5.884,5.884,0,0,1-.918-.272,2.1,2.1,0,0,1-.672-.408.814.814,0,0,1-.264-.621.857.857,0,0,1,.17-.552,1.215,1.215,0,0,1,.442-.34,2.2,2.2,0,0,1,.6-.179,4.3,4.3,0,0,1,.654-.051,3.281,3.281,0,0,1,.706.076,2.163,2.163,0,0,1,.638.247,1.447,1.447,0,0,1,.476.451,1.463,1.463,0,0,1,.221.705h1.445a3.228,3.228,0,0,0-.34-1.334,2.288,2.288,0,0,0-.773-.85A3.186,3.186,0,0,0,56.2-8.865a6.94,6.94,0,0,0-1.377-.128,4.853,4.853,0,0,0-1.164.144,3.512,3.512,0,0,0-1.054.442,2.432,2.432,0,0,0-.765.773,2.106,2.106,0,0,0-.3,1.139,1.922,1.922,0,0,0,.425,1.326,2.868,2.868,0,0,0,1.063.739,7.189,7.189,0,0,0,1.385.408q.748.144,1.386.323a3.617,3.617,0,0,1,1.063.467.962.962,0,0,1,.425.85,1.065,1.065,0,0,1-.2.672,1.293,1.293,0,0,1-.519.4,2.618,2.618,0,0,1-.688.187,5.291,5.291,0,0,1-.714.051,4.283,4.283,0,0,1-.858-.085,2.409,2.409,0,0,1-.748-.28,1.538,1.538,0,0,1-.535-.527A1.627,1.627,0,0,1,52.8-2.771Zm9.962-6.018v-2.635H61.319v2.635h-1.5v1.275h1.5v5.593a3.339,3.339,0,0,0,.119.986,1.2,1.2,0,0,0,.365.578,1.411,1.411,0,0,0,.646.28A5.189,5.189,0,0,0,63.41,0h1.1V-1.275h-.663A4.819,4.819,0,0,1,63.3-1.3a.714.714,0,0,1-.332-.11.42.42,0,0,1-.161-.238,1.577,1.577,0,0,1-.042-.408V-7.514h1.751V-8.789ZM74.239-.034A2.044,2.044,0,0,1,73.2.187a1.243,1.243,0,0,1-.893-.315,1.367,1.367,0,0,1-.331-1.029A3.457,3.457,0,0,1,70.592-.127a4.58,4.58,0,0,1-1.709.315A4.577,4.577,0,0,1,67.753.051a2.629,2.629,0,0,1-.926-.425,2.04,2.04,0,0,1-.62-.756,2.545,2.545,0,0,1-.229-1.13,2.582,2.582,0,0,1,.255-1.224,2.225,2.225,0,0,1,.672-.774,3.077,3.077,0,0,1,.952-.451q.536-.153,1.1-.255.6-.119,1.131-.179a6.3,6.3,0,0,0,.944-.17,1.572,1.572,0,0,0,.646-.323.789.789,0,0,0,.238-.621,1.442,1.442,0,0,0-.178-.765,1.224,1.224,0,0,0-.459-.442,1.866,1.866,0,0,0-.629-.2,4.75,4.75,0,0,0-.688-.051,3.056,3.056,0,0,0-1.53.349,1.479,1.479,0,0,0-.663,1.317H66.317a3.121,3.121,0,0,1,.34-1.377,2.578,2.578,0,0,1,.816-.91,3.424,3.424,0,0,1,1.164-.5,6.15,6.15,0,0,1,1.4-.153,8.227,8.227,0,0,1,1.181.085,3.088,3.088,0,0,1,1.063.349,2.037,2.037,0,0,1,.765.739,2.367,2.367,0,0,1,.289,1.241v4.522a3.382,3.382,0,0,0,.06.748q.059.238.4.238a1.431,1.431,0,0,0,.442-.085ZM71.893-4.539a1.8,1.8,0,0,1-.714.3q-.442.093-.927.153t-.977.136a3.594,3.594,0,0,0-.884.247,1.608,1.608,0,0,0-.638.484,1.357,1.357,0,0,0-.246.859,1.175,1.175,0,0,0,.145.6,1.2,1.2,0,0,0,.374.4,1.569,1.569,0,0,0,.535.221,2.971,2.971,0,0,0,.646.068,3.423,3.423,0,0,0,1.224-.2,2.575,2.575,0,0,0,.833-.493,1.945,1.945,0,0,0,.476-.646,1.634,1.634,0,0,0,.153-.655Zm6.035-4.25v-2.635H76.483v2.635h-1.5v1.275h1.5v5.593a3.34,3.34,0,0,0,.119.986,1.2,1.2,0,0,0,.366.578,1.411,1.411,0,0,0,.646.28,5.189,5.189,0,0,0,.96.076h1.105V-1.275h-.663a4.819,4.819,0,0,1-.552-.025.714.714,0,0,1-.332-.11.42.42,0,0,1-.161-.238,1.577,1.577,0,0,1-.042-.408V-7.514h1.751V-8.789ZM87.72-5.236H82.671a3.01,3.01,0,0,1,.221-.96,2.562,2.562,0,0,1,.51-.791,2.336,2.336,0,0,1,.773-.535,2.516,2.516,0,0,1,1.011-.2,2.472,2.472,0,0,1,.995.2A2.5,2.5,0,0,1,86.964-7a2.477,2.477,0,0,1,.527.791A2.956,2.956,0,0,1,87.72-5.236Zm1.394,2.448H87.686A2.055,2.055,0,0,1,86.912-1.5a2.5,2.5,0,0,1-1.5.425,2.993,2.993,0,0,1-1.241-.238,2.432,2.432,0,0,1-.867-.638,2.483,2.483,0,0,1-.493-.918,3.489,3.489,0,0,1-.136-1.1H89.25a7,7,0,0,0-.145-1.683,4.872,4.872,0,0,0-.646-1.632,3.849,3.849,0,0,0-1.241-1.233,3.606,3.606,0,0,0-1.946-.484,4,4,0,0,0-1.658.34,3.9,3.9,0,0,0-1.309.952,4.388,4.388,0,0,0-.858,1.445,5.289,5.289,0,0,0-.306,1.836,7.045,7.045,0,0,0,.3,1.853,4.044,4.044,0,0,0,.79,1.462,3.6,3.6,0,0,0,1.3.952,4.515,4.515,0,0,0,1.827.34,3.989,3.989,0,0,0,2.482-.748A3.512,3.512,0,0,0,89.114-2.788Z" transform="translate(8788.699 -692.976)" fill="#4c4c4f"></path><path id="Path_119" data-name="Path 119" d="M6.475-16.025a3.381,3.381,0,0,0-2.087.563,2.227,2.227,0,0,0-.738,1.887A1.988,1.988,0,0,0,3.9-12.55a2.531,2.531,0,0,0,.637.725,3.323,3.323,0,0,0,.9.488,9.26,9.26,0,0,0,1.037.312Zm-3.2,10.6A3.987,3.987,0,0,0,4-2.825a3.089,3.089,0,0,0,2.475,1v-6.05a20.718,20.718,0,0,1-2.037-.663,7.414,7.414,0,0,1-1.825-1A4.693,4.693,0,0,1,1.3-11.075a4.792,4.792,0,0,1-.5-2.3,4.612,4.612,0,0,1,.463-2.112,4.458,4.458,0,0,1,1.25-1.525,5.756,5.756,0,0,1,1.812-.938,7.071,7.071,0,0,1,2.15-.325v-1.95H7.55v1.95a7.358,7.358,0,0,1,2.125.3,4.991,4.991,0,0,1,1.737.9,4.3,4.3,0,0,1,1.175,1.525,4.977,4.977,0,0,1,.438,2.15h-2.85a2.989,2.989,0,0,0-.663-1.95,2.532,2.532,0,0,0-1.963-.675v5.275q1.125.3,2.2.7a7.392,7.392,0,0,1,1.9,1.025,4.759,4.759,0,0,1,1.325,1.55,4.733,4.733,0,0,1,.5,2.275,5.944,5.944,0,0,1-.462,2.438A4.827,4.827,0,0,1,11.75-1.037,5.575,5.575,0,0,1,9.875.013,8.279,8.279,0,0,1,7.55.425v1.95H6.475V.425A7.778,7.778,0,0,1,4,0,5.537,5.537,0,0,1,2.075-1.137,4.978,4.978,0,0,1,.838-2.95,6.226,6.226,0,0,1,.425-5.425Zm4.275,3.6a3.925,3.925,0,0,0,2.213-.788A2.63,2.63,0,0,0,10.625-4.8a2.4,2.4,0,0,0-.262-1.175,2.48,2.48,0,0,0-.7-.8A3.852,3.852,0,0,0,8.675-7.3q-.55-.2-1.125-.35ZM21.35-17.85a5.085,5.085,0,0,1,3.063.863,5.927,5.927,0,0,1,1.85,2.2,9.822,9.822,0,0,1,.9,2.937,21.111,21.111,0,0,1,.237,3.1,21.111,21.111,0,0,1-.237,3.1,9.822,9.822,0,0,1-.9,2.938,5.927,5.927,0,0,1-1.85,2.2A5.085,5.085,0,0,1,21.35.35a5.085,5.085,0,0,1-3.062-.863,5.927,5.927,0,0,1-1.85-2.2,9.822,9.822,0,0,1-.9-2.938,21.111,21.111,0,0,1-.238-3.1,21.111,21.111,0,0,1,.238-3.1,9.822,9.822,0,0,1,.9-2.937,5.927,5.927,0,0,1,1.85-2.2A5.085,5.085,0,0,1,21.35-17.85Zm0,15.825a2.294,2.294,0,0,0,1.55-.537,3.641,3.641,0,0,0,.988-1.45A8.649,8.649,0,0,0,24.4-6.15a21.415,21.415,0,0,0,.15-2.6,21.106,21.106,0,0,0-.15-2.587,8.837,8.837,0,0,0-.512-2.137,3.63,3.63,0,0,0-.988-1.463,2.294,2.294,0,0,0-1.55-.537,2.282,2.282,0,0,0-1.562.537,3.7,3.7,0,0,0-.975,1.463,8.837,8.837,0,0,0-.513,2.137,21.106,21.106,0,0,0-.15,2.587,21.415,21.415,0,0,0,.15,2.6,8.649,8.649,0,0,0,.513,2.137,3.707,3.707,0,0,0,.975,1.45A2.282,2.282,0,0,0,21.35-2.025Zm9.175-1.35H34V0H30.525Zm9.75-1.05a2.725,2.725,0,0,0,.762,1.738,2.415,2.415,0,0,0,1.788.662,2.66,2.66,0,0,0,1.837-.612,4.089,4.089,0,0,0,1.063-1.525,7.8,7.8,0,0,0,.513-1.95q.138-1.038.213-1.913l-.05-.05a3.893,3.893,0,0,1-1.575,1.563,4.572,4.572,0,0,1-2.2.538A5.792,5.792,0,0,1,40.362-6.4a5.078,5.078,0,0,1-1.737-1.187A5.3,5.3,0,0,1,37.5-9.437a7.021,7.021,0,0,1-.4-2.437,6.793,6.793,0,0,1,.4-2.363,5.44,5.44,0,0,1,1.175-1.9,5.31,5.31,0,0,1,1.9-1.262,6.819,6.819,0,0,1,2.55-.45,5.9,5.9,0,0,1,3.05.712,5.113,5.113,0,0,1,1.888,1.95,8.941,8.941,0,0,1,.963,2.913A22.075,22.075,0,0,1,49.3-8.7a15.349,15.349,0,0,1-.337,3.175A9.567,9.567,0,0,1,47.85-2.613,6.412,6.412,0,0,1,45.813-.475,5.571,5.571,0,0,1,42.7.35,5.534,5.534,0,0,1,40.725,0a5.306,5.306,0,0,1-1.637-.975,5.038,5.038,0,0,1-1.163-1.5,4.687,4.687,0,0,1-.5-1.95ZM43-15.475a2.984,2.984,0,0,0-1.35.288,2.65,2.65,0,0,0-.95.788,3.525,3.525,0,0,0-.562,1.15,4.846,4.846,0,0,0-.187,1.35,5.071,5.071,0,0,0,.188,1.388A3.509,3.509,0,0,0,40.7-9.35a2.9,2.9,0,0,0,.95.813A2.785,2.785,0,0,0,43-8.225a3.093,3.093,0,0,0,1.4-.3,2.771,2.771,0,0,0,.987-.812,3.7,3.7,0,0,0,.587-1.175,4.775,4.775,0,0,0,.2-1.388,4.564,4.564,0,0,0-.2-1.35,3.427,3.427,0,0,0-.587-1.138,2.892,2.892,0,0,0-.987-.787A3.093,3.093,0,0,0,43-15.475ZM53.45-6.4h5.3v-7.7H58.7ZM63.7-4.15H61.45V0h-2.7V-4.15h-7.5V-6.975L58.75-17.5h2.7V-6.4H63.7ZM65.925-17.5H77.9v2.375a31.133,31.133,0,0,0-2.5,3.212,23.4,23.4,0,0,0-1.963,3.525A23.836,23.836,0,0,0,72.075-4.45a25.89,25.89,0,0,0-.7,4.45H68.25a20.918,20.918,0,0,1,.713-4.1,25.186,25.186,0,0,1,1.45-3.925,27.157,27.157,0,0,1,2.063-3.65A31.015,31.015,0,0,1,75-14.95H65.925ZM87.1-12.925h2.15V-16.8H92.1v3.875h2.575V-10.8H92.1v6.9a6.882,6.882,0,0,0,.038.775,1.338,1.338,0,0,0,.175.55.837.837,0,0,0,.412.338,2.03,2.03,0,0,0,.75.112q.3,0,.6-.013a2.98,2.98,0,0,0,.6-.088v2.2l-.925.1a8.373,8.373,0,0,1-.925.05,6.309,6.309,0,0,1-1.812-.213,2.42,2.42,0,0,1-1.075-.625,2.157,2.157,0,0,1-.525-1.038,7.807,7.807,0,0,1-.162-1.425V-10.8H87.1Zm10.125,0H99.9v2.5h.05a2.885,2.885,0,0,1,.488-1.025,4.753,4.753,0,0,1,.875-.913,4.422,4.422,0,0,1,1.137-.663,3.405,3.405,0,0,1,1.275-.25,6.183,6.183,0,0,1,.688.025l.387.05v2.75q-.3-.05-.612-.087a5.139,5.139,0,0,0-.613-.037,3.276,3.276,0,0,0-1.362.287,3.129,3.129,0,0,0-1.113.85,4.166,4.166,0,0,0-.75,1.387,6,6,0,0,0-.275,1.9V0h-2.85ZM106.6-17.85h2.85v2.7H106.6Zm0,4.925h2.85V0H106.6Zm6.525-4.925h2.85V0h-2.85Zm6.525,0h2.85V0h-2.85Zm6.525,0h2.85v2.7h-2.85Zm0,4.925h2.85V0h-2.85ZM138.55.35a7.038,7.038,0,0,1-2.762-.513,5.891,5.891,0,0,1-2.05-1.413,6.041,6.041,0,0,1-1.275-2.15,8.276,8.276,0,0,1-.437-2.75,8.2,8.2,0,0,1,.438-2.725,6.041,6.041,0,0,1,1.275-2.15,5.891,5.891,0,0,1,2.05-1.413,7.039,7.039,0,0,1,2.762-.512,7.039,7.039,0,0,1,2.762.512,5.891,5.891,0,0,1,2.05,1.413,6.041,6.041,0,0,1,1.275,2.15,8.2,8.2,0,0,1,.438,2.725,8.276,8.276,0,0,1-.437,2.75,6.041,6.041,0,0,1-1.275,2.15,5.891,5.891,0,0,1-2.05,1.413A7.038,7.038,0,0,1,138.55.35Zm0-2.25a3.27,3.27,0,0,0,1.65-.4,3.477,3.477,0,0,0,1.15-1.05,4.582,4.582,0,0,0,.662-1.462,6.543,6.543,0,0,0,.213-1.662,6.591,6.591,0,0,0-.213-1.65,4.423,4.423,0,0,0-.662-1.463,3.532,3.532,0,0,0-1.15-1.037,3.27,3.27,0,0,0-1.65-.4,3.27,3.27,0,0,0-1.65.4,3.532,3.532,0,0,0-1.15,1.037,4.423,4.423,0,0,0-.663,1.463,6.592,6.592,0,0,0-.212,1.65,6.543,6.543,0,0,0,.212,1.662,4.583,4.583,0,0,0,.663,1.462A3.477,3.477,0,0,0,136.9-2.3,3.27,3.27,0,0,0,138.55-1.9Zm9.4-11.025h2.7v1.9l.05.05a4.779,4.779,0,0,1,1.7-1.687,4.53,4.53,0,0,1,2.325-.613,4.831,4.831,0,0,1,3.35,1.1,4.21,4.21,0,0,1,1.225,3.3V0h-2.85V-8.125a3.512,3.512,0,0,0-.65-2.213,2.361,2.361,0,0,0-1.875-.687,3.1,3.1,0,0,0-1.3.263,2.819,2.819,0,0,0-.975.725,3.408,3.408,0,0,0-.625,1.087,3.882,3.882,0,0,0-.225,1.325V0h-2.85Z" transform="translate(8788.699 -658.716)" fill="#4c4c4f"></path><g id="Group_286" data-name="Group 286" transform="translate(8989.352 -412.421)"><path id="Path_46" data-name="Path 46" d="M28.037,27.131V25.24H26.146V-16.333H16.7V25.24H14.809v-35.9H5.366v35.91H3.475V2.569H-5.982V25.24H-7.873V-3.106h-9.445V25.24H-19.21V12.012h-9.444V25.24h-1.893v1.891ZM-21.089,25.24h-5.673V13.9h5.673Zm11.336,0h-5.673V-1.215h5.673Zm11.335.012H-4.091V4.46H1.582Zm11.336,0H7.245V-8.768h5.673Zm11.348-.012H18.593v-39.68h5.673Zm-6.62-48.192h1.891v-6.607H12.918v1.891h3.391L-3.146-8.213l-9.445-9.457-12,12.006,1.325,1.337,10.679-10.667,9.445,9.445,20.791-20.78Z" transform="translate(30.546 29.559)" fill="#707070"></path></g><g id="Group_289" data-name="Group 289" transform="translate(8979.237 -735)"><path id="Path_49" data-name="Path 49" d="M0,0V362.711" fill="none" stroke="#c5cacc" stroke-width="1"></path></g><path id="Path_53" data-name="Path 53" d="M109.359,49.127h80.73V-155.811h-80.73Z" transform="translate(8868.918 -188.578)" fill="#96b3ba"></path><path id="Path_126" data-name="Path 126" d="M3.417-5.015l2.057-5.661h.034L7.531-5.015Zm1.207-7.123L-.1,0H1.547l1.36-3.655H8.041L9.367,0h1.785L6.409-12.138ZM19.72,0V-8.789H18.275v4.964a3.56,3.56,0,0,1-.161,1.1,2.49,2.49,0,0,1-.485.876,2.152,2.152,0,0,1-.808.578,2.945,2.945,0,0,1-1.147.2,1.769,1.769,0,0,1-1.309-.476,1.746,1.746,0,0,1-.476-1.292v-5.95H12.444v5.78a5.439,5.439,0,0,0,.144,1.3A2.463,2.463,0,0,0,13.09-.7a2.3,2.3,0,0,0,.935.655,3.941,3.941,0,0,0,1.445.23A3.514,3.514,0,0,0,17.153-.2a2.953,2.953,0,0,0,1.173-1.2h.034V0Zm3.4-2.771H21.675a3.18,3.18,0,0,0,.34,1.386,2.557,2.557,0,0,0,.816.918A3.42,3.42,0,0,0,24,.034,6.183,6.183,0,0,0,25.4.187,7.14,7.14,0,0,0,26.733.06,3.624,3.624,0,0,0,27.94-.391a2.591,2.591,0,0,0,.867-.85,2.448,2.448,0,0,0,.331-1.326,2.072,2.072,0,0,0-.247-1.054,2.2,2.2,0,0,0-.646-.705,3.464,3.464,0,0,0-.918-.451,10.85,10.85,0,0,0-1.062-.289q-.51-.119-1.02-.23a5.884,5.884,0,0,1-.918-.272,2.1,2.1,0,0,1-.672-.408.814.814,0,0,1-.264-.621.857.857,0,0,1,.17-.552A1.215,1.215,0,0,1,24-7.488a2.2,2.2,0,0,1,.6-.179,4.3,4.3,0,0,1,.655-.051,3.281,3.281,0,0,1,.705.076,2.163,2.163,0,0,1,.638.247,1.447,1.447,0,0,1,.476.451,1.463,1.463,0,0,1,.221.705h1.445a3.228,3.228,0,0,0-.34-1.334,2.288,2.288,0,0,0-.774-.85,3.186,3.186,0,0,0-1.114-.442,6.939,6.939,0,0,0-1.377-.128,4.854,4.854,0,0,0-1.165.144,3.512,3.512,0,0,0-1.054.442,2.433,2.433,0,0,0-.765.773,2.106,2.106,0,0,0-.3,1.139,1.922,1.922,0,0,0,.425,1.326,2.868,2.868,0,0,0,1.063.739,7.189,7.189,0,0,0,1.385.408q.748.144,1.385.323a3.617,3.617,0,0,1,1.063.467.962.962,0,0,1,.425.85,1.065,1.065,0,0,1-.2.672,1.293,1.293,0,0,1-.518.4,2.618,2.618,0,0,1-.689.187,5.29,5.29,0,0,1-.714.051,4.283,4.283,0,0,1-.859-.085,2.409,2.409,0,0,1-.748-.28,1.538,1.538,0,0,1-.536-.527A1.627,1.627,0,0,1,23.12-2.771Zm9.962-6.018v-2.635H31.637v2.635h-1.5v1.275h1.5v5.593a3.34,3.34,0,0,0,.119.986,1.2,1.2,0,0,0,.366.578,1.411,1.411,0,0,0,.646.28,5.189,5.189,0,0,0,.96.076h1.1V-1.275H34.17a4.819,4.819,0,0,1-.553-.025.714.714,0,0,1-.332-.11.42.42,0,0,1-.161-.238,1.577,1.577,0,0,1-.042-.408V-7.514h1.751V-8.789Zm3.638,0V0h1.445V-3.91a6.009,6.009,0,0,1,.17-1.5,2.884,2.884,0,0,1,.544-1.113,2.332,2.332,0,0,1,.986-.7,4.087,4.087,0,0,1,1.479-.238v-1.53a3.247,3.247,0,0,0-1.938.476,3.915,3.915,0,0,0-1.292,1.581H38.08V-8.789ZM50.558-.034a2.044,2.044,0,0,1-1.037.221,1.243,1.243,0,0,1-.893-.315A1.367,1.367,0,0,1,48.3-1.156,3.457,3.457,0,0,1,46.912-.127,4.58,4.58,0,0,1,45.2.187,4.577,4.577,0,0,1,44.073.051a2.629,2.629,0,0,1-.926-.425,2.04,2.04,0,0,1-.621-.756,2.545,2.545,0,0,1-.229-1.13,2.582,2.582,0,0,1,.255-1.224,2.225,2.225,0,0,1,.672-.774,3.077,3.077,0,0,1,.952-.451q.535-.153,1.1-.255.595-.119,1.13-.179a6.3,6.3,0,0,0,.944-.17,1.572,1.572,0,0,0,.646-.323.789.789,0,0,0,.238-.621,1.442,1.442,0,0,0-.179-.765,1.224,1.224,0,0,0-.459-.442,1.866,1.866,0,0,0-.629-.2,4.75,4.75,0,0,0-.688-.051,3.056,3.056,0,0,0-1.53.349,1.479,1.479,0,0,0-.663,1.317H42.636a3.121,3.121,0,0,1,.34-1.377,2.578,2.578,0,0,1,.816-.91,3.424,3.424,0,0,1,1.164-.5,6.15,6.15,0,0,1,1.4-.153,8.227,8.227,0,0,1,1.181.085,3.088,3.088,0,0,1,1.063.349,2.037,2.037,0,0,1,.765.739,2.367,2.367,0,0,1,.289,1.241v4.522a3.382,3.382,0,0,0,.06.748q.059.238.4.238a1.431,1.431,0,0,0,.442-.085ZM48.212-4.539a1.8,1.8,0,0,1-.714.3q-.442.093-.926.153t-.978.136a3.594,3.594,0,0,0-.884.247,1.608,1.608,0,0,0-.638.484,1.357,1.357,0,0,0-.247.859,1.175,1.175,0,0,0,.145.6,1.2,1.2,0,0,0,.374.4,1.569,1.569,0,0,0,.535.221,2.971,2.971,0,0,0,.646.068,3.423,3.423,0,0,0,1.224-.2,2.575,2.575,0,0,0,.833-.493,1.945,1.945,0,0,0,.476-.646,1.634,1.634,0,0,0,.153-.655Zm4.114-7.6V0h1.445V-12.138Zm5.559,1.768v-1.768H56.44v1.768ZM56.44-8.789V0h1.445V-8.789ZM68.255-.034a2.044,2.044,0,0,1-1.037.221,1.243,1.243,0,0,1-.893-.315,1.367,1.367,0,0,1-.331-1.029A3.457,3.457,0,0,1,64.608-.127,4.58,4.58,0,0,1,62.9.187,4.577,4.577,0,0,1,61.77.051a2.629,2.629,0,0,1-.926-.425,2.04,2.04,0,0,1-.621-.756,2.545,2.545,0,0,1-.229-1.13,2.582,2.582,0,0,1,.255-1.224,2.225,2.225,0,0,1,.672-.774,3.077,3.077,0,0,1,.952-.451q.535-.153,1.1-.255.595-.119,1.131-.179a6.3,6.3,0,0,0,.943-.17,1.572,1.572,0,0,0,.646-.323.789.789,0,0,0,.238-.621,1.442,1.442,0,0,0-.179-.765,1.224,1.224,0,0,0-.459-.442,1.866,1.866,0,0,0-.629-.2,4.75,4.75,0,0,0-.688-.051,3.056,3.056,0,0,0-1.53.349,1.479,1.479,0,0,0-.663,1.317H60.333a3.121,3.121,0,0,1,.34-1.377,2.578,2.578,0,0,1,.816-.91,3.424,3.424,0,0,1,1.164-.5,6.15,6.15,0,0,1,1.4-.153,8.227,8.227,0,0,1,1.182.085,3.088,3.088,0,0,1,1.063.349,2.037,2.037,0,0,1,.765.739,2.367,2.367,0,0,1,.289,1.241v4.522a3.382,3.382,0,0,0,.059.748q.059.238.4.238a1.431,1.431,0,0,0,.442-.085ZM65.909-4.539a1.8,1.8,0,0,1-.714.3q-.442.093-.926.153t-.978.136a3.594,3.594,0,0,0-.884.247,1.608,1.608,0,0,0-.638.484,1.357,1.357,0,0,0-.247.859,1.175,1.175,0,0,0,.145.6,1.2,1.2,0,0,0,.374.4,1.569,1.569,0,0,0,.535.221,2.971,2.971,0,0,0,.646.068,3.423,3.423,0,0,0,1.224-.2,2.574,2.574,0,0,0,.833-.493,1.945,1.945,0,0,0,.476-.646,1.634,1.634,0,0,0,.153-.655Zm4.029-4.25V0h1.445V-4.964a3.56,3.56,0,0,1,.161-1.1,2.49,2.49,0,0,1,.485-.875,2.152,2.152,0,0,1,.808-.578,2.945,2.945,0,0,1,1.147-.2,1.769,1.769,0,0,1,1.309.476,1.746,1.746,0,0,1,.476,1.292V0h1.445V-5.78a5.439,5.439,0,0,0-.145-1.3,2.463,2.463,0,0,0-.5-1.011,2.376,2.376,0,0,0-.935-.663,3.814,3.814,0,0,0-1.445-.238,3.043,3.043,0,0,0-2.856,1.6H71.3V-8.789Z" transform="translate(8995.26 -717.908)" fill="#4c4c4f"></path><path id="Path_127" data-name="Path 127" d="M1.326-12.138V0H9.367V-1.36H2.941V-12.138ZM12.41-10.37v-1.768H10.965v1.768ZM10.965-8.789V0H12.41V-8.789Zm4.913,6.018H14.433a3.18,3.18,0,0,0,.34,1.386,2.557,2.557,0,0,0,.816.918,3.42,3.42,0,0,0,1.173.5,6.183,6.183,0,0,0,1.394.153A7.14,7.14,0,0,0,19.49.06,3.624,3.624,0,0,0,20.7-.391a2.591,2.591,0,0,0,.867-.85A2.448,2.448,0,0,0,21.9-2.567a2.072,2.072,0,0,0-.247-1.054A2.2,2.2,0,0,0,21-4.326a3.464,3.464,0,0,0-.918-.451,10.85,10.85,0,0,0-1.062-.289q-.51-.119-1.02-.23a5.884,5.884,0,0,1-.918-.272,2.1,2.1,0,0,1-.672-.408A.814.814,0,0,1,16.15-6.6a.857.857,0,0,1,.17-.552,1.215,1.215,0,0,1,.442-.34,2.2,2.2,0,0,1,.6-.179,4.3,4.3,0,0,1,.655-.051,3.281,3.281,0,0,1,.705.076,2.163,2.163,0,0,1,.638.247,1.447,1.447,0,0,1,.476.451,1.463,1.463,0,0,1,.221.705h1.445a3.228,3.228,0,0,0-.34-1.334,2.288,2.288,0,0,0-.774-.85,3.186,3.186,0,0,0-1.114-.442A6.939,6.939,0,0,0,17.9-8.993a4.854,4.854,0,0,0-1.165.144,3.512,3.512,0,0,0-1.054.442,2.432,2.432,0,0,0-.765.773,2.106,2.106,0,0,0-.3,1.139,1.922,1.922,0,0,0,.425,1.326,2.868,2.868,0,0,0,1.062.739,7.189,7.189,0,0,0,1.385.408q.748.144,1.385.323a3.617,3.617,0,0,1,1.063.467.962.962,0,0,1,.425.85,1.065,1.065,0,0,1-.2.672,1.293,1.293,0,0,1-.518.4,2.618,2.618,0,0,1-.689.187,5.29,5.29,0,0,1-.714.051,4.283,4.283,0,0,1-.859-.085,2.409,2.409,0,0,1-.748-.28,1.538,1.538,0,0,1-.536-.527A1.627,1.627,0,0,1,15.878-2.771ZM25.84-8.789v-2.635H24.4v2.635H22.9v1.275h1.5v5.593a3.34,3.34,0,0,0,.119.986,1.2,1.2,0,0,0,.365.578,1.411,1.411,0,0,0,.646.28,5.189,5.189,0,0,0,.96.076h1.1V-1.275h-.663a4.819,4.819,0,0,1-.553-.025.714.714,0,0,1-.331-.11.42.42,0,0,1-.162-.238,1.577,1.577,0,0,1-.042-.408V-7.514h1.751V-8.789Zm9.792,3.553H30.583A3.01,3.01,0,0,1,30.8-6.2a2.562,2.562,0,0,1,.51-.791,2.336,2.336,0,0,1,.774-.535,2.516,2.516,0,0,1,1.011-.2,2.472,2.472,0,0,1,.994.2A2.5,2.5,0,0,1,34.875-7,2.477,2.477,0,0,1,35.4-6.2,2.956,2.956,0,0,1,35.632-5.236Zm1.394,2.448H35.6A2.055,2.055,0,0,1,34.825-1.5a2.5,2.5,0,0,1-1.5.425,2.993,2.993,0,0,1-1.241-.238,2.432,2.432,0,0,1-.867-.638,2.483,2.483,0,0,1-.493-.918,3.489,3.489,0,0,1-.136-1.1h6.579a7,7,0,0,0-.145-1.683,4.872,4.872,0,0,0-.646-1.632,3.849,3.849,0,0,0-1.241-1.233,3.606,3.606,0,0,0-1.947-.484,4,4,0,0,0-1.657.34,3.9,3.9,0,0,0-1.309.952,4.388,4.388,0,0,0-.859,1.445,5.289,5.289,0,0,0-.306,1.836,7.045,7.045,0,0,0,.3,1.853,4.044,4.044,0,0,0,.791,1.462,3.6,3.6,0,0,0,1.3.952,4.515,4.515,0,0,0,1.828.34,3.989,3.989,0,0,0,2.482-.748A3.512,3.512,0,0,0,37.026-2.788Zm3.026-1.53a5.782,5.782,0,0,1,.136-1.258,3.328,3.328,0,0,1,.442-1.088,2.3,2.3,0,0,1,.816-.765,2.481,2.481,0,0,1,1.241-.289,2.682,2.682,0,0,1,1.275.28,2.475,2.475,0,0,1,.859.74,3.092,3.092,0,0,1,.485,1.063,5.065,5.065,0,0,1,.153,1.25,5.1,5.1,0,0,1-.145,1.207,3.163,3.163,0,0,1-.467,1.063,2.487,2.487,0,0,1-.833.756,2.481,2.481,0,0,1-1.241.289,2.581,2.581,0,0,1-1.215-.272,2.416,2.416,0,0,1-.85-.731,3.235,3.235,0,0,1-.493-1.046A4.494,4.494,0,0,1,40.052-4.318ZM46.852,0V-12.138H45.407v4.522h-.034a2.328,2.328,0,0,0-.587-.655,3.332,3.332,0,0,0-.739-.425,3.712,3.712,0,0,0-.782-.229,4.28,4.28,0,0,0-.731-.068,4,4,0,0,0-1.76.366,3.612,3.612,0,0,0-1.258.986,4.163,4.163,0,0,0-.748,1.454,6.2,6.2,0,0,0-.247,1.768,6.008,6.008,0,0,0,.255,1.768,4.37,4.37,0,0,0,.757,1.462,3.656,3.656,0,0,0,1.258,1,3.964,3.964,0,0,0,1.777.374,4.284,4.284,0,0,0,1.683-.323A2.127,2.127,0,0,0,45.373-1.19h.034V0ZM61.744-8.585h1.53a4.279,4.279,0,0,0-.382-1.726,3.362,3.362,0,0,0-.952-1.2,3.927,3.927,0,0,0-1.4-.7,6.486,6.486,0,0,0-1.734-.221,6.226,6.226,0,0,0-1.623.212,4.464,4.464,0,0,0-1.411.646,3.27,3.27,0,0,0-.995,1.105A3.216,3.216,0,0,0,54.4-8.874a2.654,2.654,0,0,0,.332,1.386,2.687,2.687,0,0,0,.884.9,5.137,5.137,0,0,0,1.249.561q.7.212,1.42.374l1.419.314a6.472,6.472,0,0,1,1.25.4,2.436,2.436,0,0,1,.884.638,1.523,1.523,0,0,1,.332,1.02A1.985,1.985,0,0,1,61.9-2.193a1.98,1.98,0,0,1-.714.671,3.23,3.23,0,0,1-.994.349,6.029,6.029,0,0,1-1.1.1,5.188,5.188,0,0,1-1.326-.17,3.3,3.3,0,0,1-1.131-.527,2.705,2.705,0,0,1-.782-.91,2.742,2.742,0,0,1-.3-1.317h-1.53a4.268,4.268,0,0,0,.4,1.912A3.667,3.667,0,0,0,55.514-.757a4.765,4.765,0,0,0,1.6.774,7.117,7.117,0,0,0,1.93.255,7.379,7.379,0,0,0,1.674-.2,4.846,4.846,0,0,0,1.521-.629A3.568,3.568,0,0,0,63.35-1.674a3.048,3.048,0,0,0,.434-1.658,3.044,3.044,0,0,0-.332-1.5,2.953,2.953,0,0,0-.884-.986,4.682,4.682,0,0,0-1.25-.621q-.7-.229-1.42-.4T58.48-7.148a7.433,7.433,0,0,1-1.25-.365,2.458,2.458,0,0,1-.884-.569,1.265,1.265,0,0,1-.332-.91,1.971,1.971,0,0,1,.229-.994,1.785,1.785,0,0,1,.612-.638,2.663,2.663,0,0,1,.875-.34,4.938,4.938,0,0,1,1-.1,3.427,3.427,0,0,1,2.065.587A2.529,2.529,0,0,1,61.744-8.585Zm6.1-.2v-2.635H66.4v2.635h-1.5v1.275h1.5v5.593a3.34,3.34,0,0,0,.119.986,1.2,1.2,0,0,0,.366.578,1.411,1.411,0,0,0,.646.28,5.189,5.189,0,0,0,.96.076H69.6V-1.275h-.663a4.819,4.819,0,0,1-.552-.025.714.714,0,0,1-.332-.11.42.42,0,0,1-.161-.238,1.577,1.577,0,0,1-.042-.408V-7.514H69.6V-8.789Zm4.743,4.4a4.372,4.372,0,0,1,.213-1.42,3.063,3.063,0,0,1,.587-1.045,2.5,2.5,0,0,1,.875-.646,2.606,2.606,0,0,1,1.063-.221,2.606,2.606,0,0,1,1.063.221,2.5,2.5,0,0,1,.876.646,3.063,3.063,0,0,1,.587,1.045,4.373,4.373,0,0,1,.212,1.42,4.373,4.373,0,0,1-.212,1.419,2.97,2.97,0,0,1-.587,1.037,2.545,2.545,0,0,1-.876.638,2.606,2.606,0,0,1-1.062.221,2.606,2.606,0,0,1-1.062-.221,2.545,2.545,0,0,1-.875-.638A2.97,2.97,0,0,1,72.8-2.967,4.372,4.372,0,0,1,72.59-4.386Zm-1.53,0a5.773,5.773,0,0,0,.272,1.8,4.113,4.113,0,0,0,.816,1.453,3.754,3.754,0,0,0,1.343.969,4.554,4.554,0,0,0,1.836.348,4.539,4.539,0,0,0,1.845-.348,3.772,3.772,0,0,0,1.334-.969,4.113,4.113,0,0,0,.816-1.453,5.774,5.774,0,0,0,.272-1.8A5.854,5.854,0,0,0,79.322-6.2a4.1,4.1,0,0,0-.816-1.462,3.863,3.863,0,0,0-1.334-.978,4.445,4.445,0,0,0-1.845-.357,4.46,4.46,0,0,0-1.836.357,3.844,3.844,0,0,0-1.343.978A4.1,4.1,0,0,0,71.332-6.2,5.854,5.854,0,0,0,71.06-4.386ZM87.6-5.967h1.5a3.474,3.474,0,0,0-.408-1.352,3.017,3.017,0,0,0-.825-.944,3.415,3.415,0,0,0-1.156-.552,5.312,5.312,0,0,0-1.4-.179,4.254,4.254,0,0,0-1.819.366,3.63,3.63,0,0,0-1.3,1,4.266,4.266,0,0,0-.774,1.5,6.449,6.449,0,0,0-.255,1.845,5.922,5.922,0,0,0,.264,1.81A3.97,3.97,0,0,0,82.2-1.054,3.445,3.445,0,0,0,83.5-.136a4.578,4.578,0,0,0,1.776.323A3.819,3.819,0,0,0,87.932-.7a4.048,4.048,0,0,0,1.215-2.516H87.669a2.533,2.533,0,0,1-.74,1.581,2.365,2.365,0,0,1-1.674.561,2.392,2.392,0,0,1-1.173-.272,2.283,2.283,0,0,1-.8-.722,3.19,3.19,0,0,1-.451-1.028,4.888,4.888,0,0,1-.145-1.19,5.978,5.978,0,0,1,.136-1.283,3.219,3.219,0,0,1,.451-1.1,2.333,2.333,0,0,1,.841-.765,2.694,2.694,0,0,1,1.309-.289,2.193,2.193,0,0,1,1.462.459A2.2,2.2,0,0,1,87.6-5.967Zm3.587-6.171V0h1.445V-3.332l1.36-1.258L97,0h1.836L95.1-5.593l3.485-3.2H96.645L92.633-4.947v-7.191Zm9.962,9.367H99.705a3.18,3.18,0,0,0,.34,1.386,2.557,2.557,0,0,0,.816.918,3.42,3.42,0,0,0,1.173.5,6.183,6.183,0,0,0,1.394.153A7.141,7.141,0,0,0,104.763.06a3.624,3.624,0,0,0,1.207-.451,2.591,2.591,0,0,0,.867-.85,2.448,2.448,0,0,0,.331-1.326,2.072,2.072,0,0,0-.246-1.054,2.2,2.2,0,0,0-.646-.705,3.464,3.464,0,0,0-.918-.451,10.85,10.85,0,0,0-1.062-.289q-.51-.119-1.02-.23a5.884,5.884,0,0,1-.918-.272,2.1,2.1,0,0,1-.672-.408.814.814,0,0,1-.263-.621.857.857,0,0,1,.17-.552,1.215,1.215,0,0,1,.442-.34,2.2,2.2,0,0,1,.6-.179,4.3,4.3,0,0,1,.654-.051,3.281,3.281,0,0,1,.705.076,2.163,2.163,0,0,1,.638.247,1.447,1.447,0,0,1,.476.451,1.463,1.463,0,0,1,.221.705h1.445a3.228,3.228,0,0,0-.34-1.334,2.288,2.288,0,0,0-.774-.85,3.186,3.186,0,0,0-1.113-.442,6.939,6.939,0,0,0-1.377-.128,4.854,4.854,0,0,0-1.165.144,3.512,3.512,0,0,0-1.054.442,2.432,2.432,0,0,0-.765.773,2.106,2.106,0,0,0-.3,1.139,1.922,1.922,0,0,0,.425,1.326,2.868,2.868,0,0,0,1.063.739,7.189,7.189,0,0,0,1.385.408q.748.144,1.385.323a3.617,3.617,0,0,1,1.063.467.962.962,0,0,1,.425.85,1.065,1.065,0,0,1-.2.672,1.293,1.293,0,0,1-.518.4,2.618,2.618,0,0,1-.688.187,5.291,5.291,0,0,1-.714.051,4.283,4.283,0,0,1-.858-.085,2.409,2.409,0,0,1-.748-.28,1.538,1.538,0,0,1-.535-.527A1.627,1.627,0,0,1,101.15-2.771Z" transform="translate(8995.26 -692.976)" fill="#4c4c4f"></path><path id="Path_128" data-name="Path 128" d="M6.734-16.666a3.516,3.516,0,0,0-2.171.585A2.316,2.316,0,0,0,3.8-14.118a2.067,2.067,0,0,0,.26,1.066,2.633,2.633,0,0,0,.663.754,3.456,3.456,0,0,0,.936.507,9.63,9.63,0,0,0,1.079.325ZM3.406-5.642a4.147,4.147,0,0,0,.754,2.7A3.213,3.213,0,0,0,6.734-1.9V-8.19a21.547,21.547,0,0,1-2.119-.689,7.711,7.711,0,0,1-1.9-1.04,4.88,4.88,0,0,1-1.365-1.6,4.983,4.983,0,0,1-.52-2.392,4.8,4.8,0,0,1,.481-2.2,4.636,4.636,0,0,1,1.3-1.586A5.986,5.986,0,0,1,4.5-18.668a7.354,7.354,0,0,1,2.236-.338v-2.028H7.852v2.028a7.652,7.652,0,0,1,2.21.312,5.191,5.191,0,0,1,1.807.936,4.475,4.475,0,0,1,1.222,1.586,5.176,5.176,0,0,1,.455,2.236H10.582a3.109,3.109,0,0,0-.689-2.028,2.634,2.634,0,0,0-2.041-.7v5.486q1.17.312,2.288.728a7.688,7.688,0,0,1,1.976,1.066,4.95,4.95,0,0,1,1.378,1.612,4.923,4.923,0,0,1,.52,2.366,6.182,6.182,0,0,1-.481,2.535A5.02,5.02,0,0,1,12.22-1.079,5.8,5.8,0,0,1,10.27.013,8.61,8.61,0,0,1,7.852.442V2.47H6.734V.442A8.089,8.089,0,0,1,4.16,0a5.758,5.758,0,0,1-2-1.183A5.177,5.177,0,0,1,.871-3.068,6.475,6.475,0,0,1,.442-5.642ZM7.852-1.9a4.081,4.081,0,0,0,2.3-.819,2.735,2.735,0,0,0,.9-2.275,2.5,2.5,0,0,0-.273-1.222,2.579,2.579,0,0,0-.728-.832,4.006,4.006,0,0,0-1.027-.546Q8.45-7.8,7.852-7.956Zm8.5-13.286a10.455,10.455,0,0,0,1.82-.156,5.68,5.68,0,0,0,1.6-.52,4.1,4.1,0,0,0,1.222-.936,2.865,2.865,0,0,0,.663-1.4h2.418V0h-3.25V-12.844H16.354ZM31.746-3.51H35.36V0H31.746ZM44.928-16.224a3,3,0,0,0-2.028.715,2.576,2.576,0,0,0-.832,2.067,2.472,2.472,0,0,0,.806,1.989,3.05,3.05,0,0,0,2.054.689,3.05,3.05,0,0,0,2.054-.689,2.472,2.472,0,0,0,.806-1.989,2.576,2.576,0,0,0-.832-2.067A3,3,0,0,0,44.928-16.224Zm0,16.588a8.134,8.134,0,0,1-2.561-.39,5.915,5.915,0,0,1-2.041-1.131,5.157,5.157,0,0,1-1.339-1.807,5.753,5.753,0,0,1-.481-2.392,4.6,4.6,0,0,1,.9-2.886A4.293,4.293,0,0,1,41.834-9.8v-.052A3.877,3.877,0,0,1,39.923-11.3a3.993,3.993,0,0,1-.663-2.3,4.647,4.647,0,0,1,1.469-3.653,6.1,6.1,0,0,1,4.2-1.313,6.1,6.1,0,0,1,4.2,1.313A4.647,4.647,0,0,1,50.6-13.6a3.993,3.993,0,0,1-.663,2.3,3.877,3.877,0,0,1-1.911,1.443V-9.8a4.293,4.293,0,0,1,2.431,1.56,4.6,4.6,0,0,1,.9,2.886,5.753,5.753,0,0,1-.481,2.392A5.157,5.157,0,0,1,49.53-1.157,5.915,5.915,0,0,1,47.489-.026,8.134,8.134,0,0,1,44.928.364Zm0-2.34A3.567,3.567,0,0,0,47.4-2.86a3.175,3.175,0,0,0,.988-2.5A2.93,2.93,0,0,0,47.4-7.709a3.667,3.667,0,0,0-2.47-.845,3.667,3.667,0,0,0-2.47.845,2.93,2.93,0,0,0-.988,2.353,3.175,3.175,0,0,0,.988,2.5A3.567,3.567,0,0,0,44.928-1.976Zm15.7-11.466h2.236v-4.03h2.964v4.03H68.51v2.21H65.832v7.176a7.157,7.157,0,0,0,.039.806,1.391,1.391,0,0,0,.182.572.87.87,0,0,0,.429.351,2.111,2.111,0,0,0,.78.117q.312,0,.624-.013a3.1,3.1,0,0,0,.624-.091V-.026l-.962.1a8.708,8.708,0,0,1-.962.052A6.561,6.561,0,0,1,64.7-.091a2.516,2.516,0,0,1-1.118-.65,2.243,2.243,0,0,1-.546-1.079A8.12,8.12,0,0,1,62.868-3.3v-7.93H60.632Zm10.53,0h2.782v2.6H74a3,3,0,0,1,.507-1.066,4.944,4.944,0,0,1,.91-.949,4.6,4.6,0,0,1,1.183-.689,3.542,3.542,0,0,1,1.326-.26,6.43,6.43,0,0,1,.715.026l.4.052v2.86q-.312-.052-.637-.091A5.344,5.344,0,0,0,77.766-11a3.407,3.407,0,0,0-1.417.3,3.254,3.254,0,0,0-1.157.884,4.332,4.332,0,0,0-.78,1.443A6.245,6.245,0,0,0,74.126-6.4V0H71.162Zm9.75-5.122h2.964v2.808H80.912Zm0,5.122h2.964V0H80.912ZM87.7-18.564h2.964V0H87.7Zm6.786,0h2.964V0H94.484Zm6.786,0h2.964v2.808H101.27Zm0,5.122h2.964V0H101.27ZM114.14.364a7.32,7.32,0,0,1-2.873-.533,6.127,6.127,0,0,1-2.132-1.469,6.283,6.283,0,0,1-1.326-2.236,8.607,8.607,0,0,1-.455-2.86,8.524,8.524,0,0,1,.455-2.834,6.283,6.283,0,0,1,1.326-2.236,6.127,6.127,0,0,1,2.132-1.469,7.32,7.32,0,0,1,2.873-.533,7.32,7.32,0,0,1,2.873.533,6.127,6.127,0,0,1,2.132,1.469,6.283,6.283,0,0,1,1.326,2.236,8.524,8.524,0,0,1,.455,2.834,8.607,8.607,0,0,1-.455,2.86,6.283,6.283,0,0,1-1.326,2.236,6.127,6.127,0,0,1-2.132,1.469A7.32,7.32,0,0,1,114.14.364Zm0-2.34a3.4,3.4,0,0,0,1.716-.416,3.616,3.616,0,0,0,1.2-1.092,4.766,4.766,0,0,0,.689-1.521,6.805,6.805,0,0,0,.221-1.729,6.856,6.856,0,0,0-.221-1.716,4.6,4.6,0,0,0-.689-1.521,3.673,3.673,0,0,0-1.2-1.079,3.4,3.4,0,0,0-1.716-.416,3.4,3.4,0,0,0-1.716.416,3.673,3.673,0,0,0-1.2,1.079,4.6,4.6,0,0,0-.689,1.521,6.856,6.856,0,0,0-.221,1.716,6.805,6.805,0,0,0,.221,1.729,4.766,4.766,0,0,0,.689,1.521,3.616,3.616,0,0,0,1.2,1.092A3.4,3.4,0,0,0,114.14-1.976Zm9.776-11.466h2.808v1.976l.052.052a4.97,4.97,0,0,1,1.768-1.755,4.711,4.711,0,0,1,2.418-.637,5.024,5.024,0,0,1,3.484,1.144A4.379,4.379,0,0,1,135.72-9.23V0h-2.964V-8.45a3.652,3.652,0,0,0-.676-2.3,2.455,2.455,0,0,0-1.95-.715,3.22,3.22,0,0,0-1.352.273,2.932,2.932,0,0,0-1.014.754,3.544,3.544,0,0,0-.65,1.131,4.037,4.037,0,0,0-.234,1.378V0h-2.964Z" transform="translate(8995.26 -657.716)" fill="#4c4c4f"></path><g id="Group_287" data-name="Group 287" transform="translate(9192.994 -519.109)"><path id="Path_47" data-name="Path 47" d="M21.464,6.395C13.18-11.416-2.9-11.426-11.192,6.395-21.815,5.6-25.531,19.983-22.2,30.168A13.579,13.579,0,0,0-18.466,36.1l-1.732.389a1.652,1.652,0,0,0-1.268,1.352,1.655,1.655,0,0,0,.782,1.682l.476.257L-22.8,41.77a1.643,1.643,0,0,0-.47,1.709,1.646,1.646,0,0,0,1.354,1.145l5.125.483-1.226,1.9a1.388,1.388,0,0,0,.056,1.6,1.39,1.39,0,0,0,1.523.487l7.608-2.53a.875.875,0,0,1,.817.132l2.4,1.789a2.238,2.238,0,0,0,2.34.238l4.937-2.33c2.292,3.423,2.006,3.005,2.064,3.07a1.8,1.8,0,0,0,2.756,0c.058-.065-.226.353,2.064-3.07l4.937,2.33a2.238,2.238,0,0,0,2.34-.238l2.4-1.789a.9.9,0,0,1,.819-.132L26.694,49.1a1.388,1.388,0,0,0,1.559-2.083l-1.227-1.9,5.155-.485a1.654,1.654,0,0,0,.894-2.861l-2.6-1.949.552-.3a1.655,1.655,0,0,0-.562-2.986l-1.73-.389a13.606,13.606,0,0,0,3.738-5.972c3.318-10.2-.382-24.61-11.012-23.774M-16.422,37.633A14.992,14.992,0,0,0-5.839,39.382a20.921,20.921,0,0,0,22.025,0,14.981,14.981,0,0,0,10.537-1.749l2.681.608-.315.173a1.645,1.645,0,0,0-.18,2.633l2.388,1.8-4.889.466a1.654,1.654,0,0,0-1.045,2.72l.531.819-6.227-2.064A2.851,2.851,0,0,0,17.1,45.2L14.711,46.99a.368.368,0,0,1-.38.048L9.406,44.717a1.627,1.627,0,0,0-2.207.343L5.135,48.15l-2.064-3.09a1.625,1.625,0,0,0-2.206-.343l-4.925,2.321a.372.372,0,0,1-.382-.048L-6.827,45.2a2.852,2.852,0,0,0-2.568-.418l-6.229,2.064.533-.819a1.653,1.653,0,0,0,.282-1.682,1.662,1.662,0,0,0-1.356-1.038l-4.9-.466,2.424-1.8a1.641,1.641,0,0,0,.587-1.4,1.637,1.637,0,0,0-.806-1.283l-.238-.125ZM-11.982,8.3a39.558,39.558,0,0,0-2.852,14.424,19.019,19.019,0,0,0,6.7,15.055,13.1,13.1,0,0,1-7.654-1.9.431.431,0,0,0-.115-.086,11.41,11.41,0,0,1-4.5-6.172C-23.174,21.059-20.606,8.3-11.982,8.3M23.2,22.721c0,7.351-3.385,12.079-7.606,14.817a20.225,20.225,0,0,1-10.462,3.09A19.834,19.834,0,0,1-5.087,37.671a.957.957,0,0,0-.209-.125C-9.546,34.8-12.9,30.073-12.9,22.721-12.933,9.895-5.039-5.016,5.135-5.016S23.2,9.895,23.2,22.721m7.466,6.895A11.412,11.412,0,0,1,26.151,35.8a1.05,1.05,0,0,0-.171.105,13,13,0,0,1-7.531,1.874A19.021,19.021,0,0,0,25.106,22.76,39.514,39.514,0,0,0,22.252,8.3c8.7,0,11.164,12.846,8.417,21.319m-19-17.132a.954.954,0,0,0,0-.957c-.065-.115-1.53-2.683-5.591-3.034V6.562a.951.951,0,0,0-1.9,0v1.96c-2.919.322-5.706,2.11-5.706,5.172,0,4.4,3.8,4.879,6.542,5.22,3.111.389,4.869.742,4.869,3.339,0,4.668-8.31,3.469-9.785,2.177a.956.956,0,0,0-1.35,0,.956.956,0,0,0,0,1.35c.163.161,1.626,1.484,5.429,1.7v1.9a.951.951,0,0,0,1.9,0v-1.9c4.183-.334,5.706-2.854,5.706-5.194,0-4.4-3.805-4.877-6.542-5.22C2.139,16.642.381,16.291.381,13.694c0-2.292,2.777-3.327,4.754-3.327,3.594,0,4.821,2.006,4.879,2.11a.957.957,0,0,0,1.659.008" transform="translate(23.385 6.967)" fill="#707070"></path></g><g id="Group_291" data-name="Group 291" transform="translate(9182.108 -735)"><path id="Path_51" data-name="Path 51" d="M0,0V244.428" fill="none" stroke="#96b3ba" stroke-width="1"></path></g><path id="Path_55" data-name="Path 55" d="M215.139,101.943h80.732v-315.3H215.139Z" transform="translate(8966.009 -241.394)" fill="#539cad"></path><path id="Path_123" data-name="Path 123" d="M3.417-5.015l2.057-5.661h.034L7.531-5.015Zm1.207-7.123L-.1,0H1.547l1.36-3.655H8.041L9.367,0h1.785L6.409-12.138ZM19.72,0V-8.789H18.275v4.964a3.56,3.56,0,0,1-.161,1.1,2.49,2.49,0,0,1-.485.876,2.152,2.152,0,0,1-.808.578,2.945,2.945,0,0,1-1.147.2,1.769,1.769,0,0,1-1.309-.476,1.746,1.746,0,0,1-.476-1.292v-5.95H12.444v5.78a5.439,5.439,0,0,0,.144,1.3A2.463,2.463,0,0,0,13.09-.7a2.3,2.3,0,0,0,.935.655,3.941,3.941,0,0,0,1.445.23A3.514,3.514,0,0,0,17.153-.2a2.953,2.953,0,0,0,1.173-1.2h.034V0Zm3.4-2.771H21.675a3.18,3.18,0,0,0,.34,1.386,2.557,2.557,0,0,0,.816.918A3.42,3.42,0,0,0,24,.034,6.183,6.183,0,0,0,25.4.187,7.14,7.14,0,0,0,26.733.06,3.624,3.624,0,0,0,27.94-.391a2.591,2.591,0,0,0,.867-.85,2.448,2.448,0,0,0,.331-1.326,2.072,2.072,0,0,0-.247-1.054,2.2,2.2,0,0,0-.646-.705,3.464,3.464,0,0,0-.918-.451,10.85,10.85,0,0,0-1.062-.289q-.51-.119-1.02-.23a5.884,5.884,0,0,1-.918-.272,2.1,2.1,0,0,1-.672-.408.814.814,0,0,1-.264-.621.857.857,0,0,1,.17-.552A1.215,1.215,0,0,1,24-7.488a2.2,2.2,0,0,1,.6-.179,4.3,4.3,0,0,1,.655-.051,3.281,3.281,0,0,1,.705.076,2.163,2.163,0,0,1,.638.247,1.447,1.447,0,0,1,.476.451,1.463,1.463,0,0,1,.221.705h1.445a3.228,3.228,0,0,0-.34-1.334,2.288,2.288,0,0,0-.774-.85,3.186,3.186,0,0,0-1.114-.442,6.939,6.939,0,0,0-1.377-.128,4.854,4.854,0,0,0-1.165.144,3.512,3.512,0,0,0-1.054.442,2.433,2.433,0,0,0-.765.773,2.106,2.106,0,0,0-.3,1.139,1.922,1.922,0,0,0,.425,1.326,2.868,2.868,0,0,0,1.063.739,7.189,7.189,0,0,0,1.385.408q.748.144,1.385.323a3.617,3.617,0,0,1,1.063.467.962.962,0,0,1,.425.85,1.065,1.065,0,0,1-.2.672,1.293,1.293,0,0,1-.518.4,2.618,2.618,0,0,1-.689.187,5.29,5.29,0,0,1-.714.051,4.283,4.283,0,0,1-.859-.085,2.409,2.409,0,0,1-.748-.28,1.538,1.538,0,0,1-.536-.527A1.627,1.627,0,0,1,23.12-2.771Zm9.962-6.018v-2.635H31.637v2.635h-1.5v1.275h1.5v5.593a3.34,3.34,0,0,0,.119.986,1.2,1.2,0,0,0,.366.578,1.411,1.411,0,0,0,.646.28,5.189,5.189,0,0,0,.96.076h1.1V-1.275H34.17a4.819,4.819,0,0,1-.553-.025.714.714,0,0,1-.332-.11.42.42,0,0,1-.161-.238,1.577,1.577,0,0,1-.042-.408V-7.514h1.751V-8.789Zm3.638,0V0h1.445V-3.91a6.009,6.009,0,0,1,.17-1.5,2.884,2.884,0,0,1,.544-1.113,2.332,2.332,0,0,1,.986-.7,4.087,4.087,0,0,1,1.479-.238v-1.53a3.247,3.247,0,0,0-1.938.476,3.915,3.915,0,0,0-1.292,1.581H38.08V-8.789ZM50.558-.034a2.044,2.044,0,0,1-1.037.221,1.243,1.243,0,0,1-.893-.315A1.367,1.367,0,0,1,48.3-1.156,3.457,3.457,0,0,1,46.912-.127,4.58,4.58,0,0,1,45.2.187,4.577,4.577,0,0,1,44.073.051a2.629,2.629,0,0,1-.926-.425,2.04,2.04,0,0,1-.621-.756,2.545,2.545,0,0,1-.229-1.13,2.582,2.582,0,0,1,.255-1.224,2.225,2.225,0,0,1,.672-.774,3.077,3.077,0,0,1,.952-.451q.535-.153,1.1-.255.595-.119,1.13-.179a6.3,6.3,0,0,0,.944-.17,1.572,1.572,0,0,0,.646-.323.789.789,0,0,0,.238-.621,1.442,1.442,0,0,0-.179-.765,1.224,1.224,0,0,0-.459-.442,1.866,1.866,0,0,0-.629-.2,4.75,4.75,0,0,0-.688-.051,3.056,3.056,0,0,0-1.53.349,1.479,1.479,0,0,0-.663,1.317H42.636a3.121,3.121,0,0,1,.34-1.377,2.578,2.578,0,0,1,.816-.91,3.424,3.424,0,0,1,1.164-.5,6.15,6.15,0,0,1,1.4-.153,8.227,8.227,0,0,1,1.181.085,3.088,3.088,0,0,1,1.063.349,2.037,2.037,0,0,1,.765.739,2.367,2.367,0,0,1,.289,1.241v4.522a3.382,3.382,0,0,0,.06.748q.059.238.4.238a1.431,1.431,0,0,0,.442-.085ZM48.212-4.539a1.8,1.8,0,0,1-.714.3q-.442.093-.926.153t-.978.136a3.594,3.594,0,0,0-.884.247,1.608,1.608,0,0,0-.638.484,1.357,1.357,0,0,0-.247.859,1.175,1.175,0,0,0,.145.6,1.2,1.2,0,0,0,.374.4,1.569,1.569,0,0,0,.535.221,2.971,2.971,0,0,0,.646.068,3.423,3.423,0,0,0,1.224-.2,2.575,2.575,0,0,0,.833-.493,1.945,1.945,0,0,0,.476-.646,1.634,1.634,0,0,0,.153-.655Zm4.114-7.6V0h1.445V-12.138Zm5.559,1.768v-1.768H56.44v1.768ZM56.44-8.789V0h1.445V-8.789ZM68.255-.034a2.044,2.044,0,0,1-1.037.221,1.243,1.243,0,0,1-.893-.315,1.367,1.367,0,0,1-.331-1.029A3.457,3.457,0,0,1,64.608-.127,4.58,4.58,0,0,1,62.9.187,4.577,4.577,0,0,1,61.77.051a2.629,2.629,0,0,1-.926-.425,2.04,2.04,0,0,1-.621-.756,2.545,2.545,0,0,1-.229-1.13,2.582,2.582,0,0,1,.255-1.224,2.225,2.225,0,0,1,.672-.774,3.077,3.077,0,0,1,.952-.451q.535-.153,1.1-.255.595-.119,1.131-.179a6.3,6.3,0,0,0,.943-.17,1.572,1.572,0,0,0,.646-.323.789.789,0,0,0,.238-.621,1.442,1.442,0,0,0-.179-.765,1.224,1.224,0,0,0-.459-.442,1.866,1.866,0,0,0-.629-.2,4.75,4.75,0,0,0-.688-.051,3.056,3.056,0,0,0-1.53.349,1.479,1.479,0,0,0-.663,1.317H60.333a3.121,3.121,0,0,1,.34-1.377,2.578,2.578,0,0,1,.816-.91,3.424,3.424,0,0,1,1.164-.5,6.15,6.15,0,0,1,1.4-.153,8.227,8.227,0,0,1,1.182.085,3.088,3.088,0,0,1,1.063.349,2.037,2.037,0,0,1,.765.739,2.367,2.367,0,0,1,.289,1.241v4.522a3.382,3.382,0,0,0,.059.748q.059.238.4.238a1.431,1.431,0,0,0,.442-.085ZM65.909-4.539a1.8,1.8,0,0,1-.714.3q-.442.093-.926.153t-.978.136a3.594,3.594,0,0,0-.884.247,1.608,1.608,0,0,0-.638.484,1.357,1.357,0,0,0-.247.859,1.175,1.175,0,0,0,.145.6,1.2,1.2,0,0,0,.374.4,1.569,1.569,0,0,0,.535.221,2.971,2.971,0,0,0,.646.068,3.423,3.423,0,0,0,1.224-.2,2.574,2.574,0,0,0,.833-.493,1.945,1.945,0,0,0,.476-.646,1.634,1.634,0,0,0,.153-.655Zm4.029-4.25V0h1.445V-4.964a3.56,3.56,0,0,1,.161-1.1,2.49,2.49,0,0,1,.485-.875,2.152,2.152,0,0,1,.808-.578,2.945,2.945,0,0,1,1.147-.2,1.769,1.769,0,0,1,1.309.476,1.746,1.746,0,0,1,.476,1.292V0h1.445V-5.78a5.439,5.439,0,0,0-.145-1.3,2.463,2.463,0,0,0-.5-1.011,2.376,2.376,0,0,0-.935-.663,3.814,3.814,0,0,0-1.445-.238,3.043,3.043,0,0,0-2.856,1.6H71.3V-8.789Z" transform="translate(9198.13 -717.908)" fill="#4c4c4f"></path><path id="Path_124" data-name="Path 124" d="M8.347-8.585h1.53a4.279,4.279,0,0,0-.382-1.726,3.362,3.362,0,0,0-.952-1.2,3.927,3.927,0,0,0-1.4-.7,6.486,6.486,0,0,0-1.734-.221,6.226,6.226,0,0,0-1.623.212,4.464,4.464,0,0,0-1.411.646,3.27,3.27,0,0,0-.995,1.105A3.216,3.216,0,0,0,1-8.874a2.654,2.654,0,0,0,.332,1.386,2.687,2.687,0,0,0,.884.9,5.138,5.138,0,0,0,1.249.561q.7.212,1.419.374l1.419.314a6.472,6.472,0,0,1,1.25.4A2.436,2.436,0,0,1,8.44-4.3a1.523,1.523,0,0,1,.332,1.02A1.985,1.985,0,0,1,8.5-2.193a1.98,1.98,0,0,1-.714.671,3.23,3.23,0,0,1-.995.349,6.029,6.029,0,0,1-1.1.1,5.188,5.188,0,0,1-1.326-.17,3.3,3.3,0,0,1-1.13-.527,2.705,2.705,0,0,1-.782-.91,2.742,2.742,0,0,1-.3-1.317H.629a4.268,4.268,0,0,0,.4,1.912A3.667,3.667,0,0,0,2.116-.757a4.765,4.765,0,0,0,1.6.774A7.117,7.117,0,0,0,5.644.272a7.379,7.379,0,0,0,1.675-.2A4.846,4.846,0,0,0,8.84-.553,3.568,3.568,0,0,0,9.953-1.674a3.048,3.048,0,0,0,.434-1.658,3.044,3.044,0,0,0-.332-1.5,2.953,2.953,0,0,0-.884-.986,4.682,4.682,0,0,0-1.25-.621q-.7-.229-1.419-.4t-1.42-.314a7.433,7.433,0,0,1-1.249-.365,2.458,2.458,0,0,1-.884-.569,1.265,1.265,0,0,1-.332-.91,1.971,1.971,0,0,1,.23-.994,1.785,1.785,0,0,1,.612-.638,2.663,2.663,0,0,1,.875-.34,4.938,4.938,0,0,1,1-.1,3.427,3.427,0,0,1,2.065.587A2.529,2.529,0,0,1,8.347-8.585ZM19.72,0V-8.789H18.275v4.964a3.56,3.56,0,0,1-.161,1.1,2.49,2.49,0,0,1-.485.876,2.152,2.152,0,0,1-.808.578,2.945,2.945,0,0,1-1.147.2,1.769,1.769,0,0,1-1.309-.476,1.746,1.746,0,0,1-.476-1.292v-5.95H12.444v5.78a5.439,5.439,0,0,0,.144,1.3A2.463,2.463,0,0,0,13.09-.7a2.3,2.3,0,0,0,.935.655,3.941,3.941,0,0,0,1.445.23A3.514,3.514,0,0,0,17.153-.2a2.953,2.953,0,0,0,1.173-1.2h.034V0Zm2.567-8.789V3.349h1.445V-1.173h.034a2.328,2.328,0,0,0,.587.654,3.089,3.089,0,0,0,.74.417,4.013,4.013,0,0,0,.79.221,4.344,4.344,0,0,0,.723.068A4.081,4.081,0,0,0,28.365-.17a3.526,3.526,0,0,0,1.258-.978A4.163,4.163,0,0,0,30.371-2.6a6.2,6.2,0,0,0,.247-1.768,6.008,6.008,0,0,0-.255-1.768,4.467,4.467,0,0,0-.756-1.47,3.613,3.613,0,0,0-1.258-1.012,3.964,3.964,0,0,0-1.776-.374,4.188,4.188,0,0,0-1.683.331A2.164,2.164,0,0,0,23.766-7.6h-.034v-1.19Zm6.8,4.318a5.782,5.782,0,0,1-.136,1.258,3.328,3.328,0,0,1-.442,1.088,2.323,2.323,0,0,1-.808.765,2.471,2.471,0,0,1-1.25.289,2.682,2.682,0,0,1-1.275-.28,2.475,2.475,0,0,1-.859-.74,3.092,3.092,0,0,1-.484-1.062,5.065,5.065,0,0,1-.153-1.25,5.1,5.1,0,0,1,.145-1.207,3.163,3.163,0,0,1,.468-1.062,2.487,2.487,0,0,1,.833-.756,2.481,2.481,0,0,1,1.241-.289,2.581,2.581,0,0,1,1.215.272,2.416,2.416,0,0,1,.85.731,3.235,3.235,0,0,1,.493,1.046A4.494,4.494,0,0,1,29.087-4.471Zm9.673-.765H33.711a3.01,3.01,0,0,1,.221-.96,2.562,2.562,0,0,1,.51-.791,2.336,2.336,0,0,1,.773-.535,2.516,2.516,0,0,1,1.012-.2,2.472,2.472,0,0,1,.994.2A2.5,2.5,0,0,1,38-7a2.477,2.477,0,0,1,.527.791A2.956,2.956,0,0,1,38.76-5.236Zm1.394,2.448H38.726A2.055,2.055,0,0,1,37.952-1.5a2.5,2.5,0,0,1-1.5.425,2.993,2.993,0,0,1-1.241-.238,2.432,2.432,0,0,1-.867-.638,2.483,2.483,0,0,1-.493-.918,3.489,3.489,0,0,1-.136-1.1H40.29a7,7,0,0,0-.145-1.683A4.872,4.872,0,0,0,39.5-7.276a3.849,3.849,0,0,0-1.241-1.233,3.606,3.606,0,0,0-1.946-.484,4,4,0,0,0-1.658.34,3.9,3.9,0,0,0-1.309.952,4.388,4.388,0,0,0-.859,1.445,5.289,5.289,0,0,0-.306,1.836,7.045,7.045,0,0,0,.3,1.853,4.044,4.044,0,0,0,.791,1.462,3.6,3.6,0,0,0,1.3.952A4.515,4.515,0,0,0,36.4.187a3.989,3.989,0,0,0,2.482-.748A3.512,3.512,0,0,0,40.154-2.788Zm1.921-6V0H43.52V-3.91a6.009,6.009,0,0,1,.17-1.5,2.884,2.884,0,0,1,.544-1.113,2.332,2.332,0,0,1,.986-.7A4.087,4.087,0,0,1,46.7-7.463v-1.53a3.247,3.247,0,0,0-1.938.476,3.915,3.915,0,0,0-1.292,1.581h-.034V-8.789ZM55.913-.034a2.044,2.044,0,0,1-1.037.221,1.243,1.243,0,0,1-.892-.315,1.367,1.367,0,0,1-.332-1.029A3.457,3.457,0,0,1,52.267-.127a4.58,4.58,0,0,1-1.708.315A4.577,4.577,0,0,1,49.428.051,2.629,2.629,0,0,1,48.5-.374a2.04,2.04,0,0,1-.621-.756,2.545,2.545,0,0,1-.229-1.13,2.582,2.582,0,0,1,.255-1.224,2.225,2.225,0,0,1,.672-.774,3.077,3.077,0,0,1,.952-.451q.535-.153,1.1-.255.6-.119,1.131-.179a6.3,6.3,0,0,0,.944-.17,1.572,1.572,0,0,0,.646-.323.789.789,0,0,0,.238-.621,1.442,1.442,0,0,0-.178-.765,1.224,1.224,0,0,0-.459-.442,1.866,1.866,0,0,0-.629-.2,4.75,4.75,0,0,0-.688-.051,3.056,3.056,0,0,0-1.53.349,1.479,1.479,0,0,0-.663,1.317H47.991a3.121,3.121,0,0,1,.34-1.377,2.578,2.578,0,0,1,.816-.91,3.424,3.424,0,0,1,1.164-.5,6.15,6.15,0,0,1,1.4-.153,8.227,8.227,0,0,1,1.181.085,3.088,3.088,0,0,1,1.063.349,2.037,2.037,0,0,1,.765.739,2.367,2.367,0,0,1,.289,1.241v4.522a3.382,3.382,0,0,0,.06.748q.059.238.4.238a1.431,1.431,0,0,0,.442-.085ZM53.567-4.539a1.8,1.8,0,0,1-.714.3q-.442.093-.926.153t-.978.136a3.594,3.594,0,0,0-.884.247,1.608,1.608,0,0,0-.638.484,1.357,1.357,0,0,0-.247.859,1.175,1.175,0,0,0,.145.6,1.2,1.2,0,0,0,.374.4,1.569,1.569,0,0,0,.535.221,2.971,2.971,0,0,0,.646.068,3.423,3.423,0,0,0,1.224-.2,2.575,2.575,0,0,0,.833-.493,1.945,1.945,0,0,0,.476-.646,1.634,1.634,0,0,0,.153-.655ZM57.6-8.789V0h1.445V-4.964a3.56,3.56,0,0,1,.161-1.1,2.49,2.49,0,0,1,.485-.875,2.152,2.152,0,0,1,.807-.578,2.945,2.945,0,0,1,1.147-.2,1.769,1.769,0,0,1,1.309.476,1.746,1.746,0,0,1,.476,1.292V0h1.445V-5.78a5.439,5.439,0,0,0-.145-1.3,2.463,2.463,0,0,0-.5-1.011,2.376,2.376,0,0,0-.935-.663,3.814,3.814,0,0,0-1.445-.238,3.043,3.043,0,0,0-2.856,1.6h-.034V-8.789Zm9.792,0V0h1.445V-4.964a3.56,3.56,0,0,1,.162-1.1,2.49,2.49,0,0,1,.484-.875,2.152,2.152,0,0,1,.808-.578,2.945,2.945,0,0,1,1.147-.2,1.769,1.769,0,0,1,1.309.476,1.746,1.746,0,0,1,.476,1.292V0h1.445V-5.78a5.439,5.439,0,0,0-.145-1.3,2.463,2.463,0,0,0-.5-1.011,2.376,2.376,0,0,0-.935-.663,3.814,3.814,0,0,0-1.445-.238,3.043,3.043,0,0,0-2.856,1.6h-.034V-8.789ZM84.456,0V-8.789H83.011v4.964a3.56,3.56,0,0,1-.161,1.1,2.49,2.49,0,0,1-.484.876,2.152,2.152,0,0,1-.808.578,2.945,2.945,0,0,1-1.147.2A1.769,1.769,0,0,1,79.1-1.547a1.746,1.746,0,0,1-.476-1.292v-5.95H77.18v5.78a5.439,5.439,0,0,0,.145,1.3,2.463,2.463,0,0,0,.5,1.012,2.3,2.3,0,0,0,.935.655,3.941,3.941,0,0,0,1.445.23A3.514,3.514,0,0,0,81.889-.2a2.953,2.953,0,0,0,1.173-1.2H83.1V0Zm10.3-.034a2.044,2.044,0,0,1-1.037.221,1.243,1.243,0,0,1-.892-.315A1.367,1.367,0,0,1,92.5-1.156,3.457,3.457,0,0,1,91.112-.127,4.58,4.58,0,0,1,89.4.187,4.577,4.577,0,0,1,88.272.051a2.629,2.629,0,0,1-.926-.425,2.04,2.04,0,0,1-.62-.756,2.545,2.545,0,0,1-.229-1.13,2.582,2.582,0,0,1,.255-1.224,2.225,2.225,0,0,1,.672-.774,3.077,3.077,0,0,1,.952-.451q.536-.153,1.1-.255.6-.119,1.131-.179a6.3,6.3,0,0,0,.944-.17,1.572,1.572,0,0,0,.646-.323.789.789,0,0,0,.238-.621,1.442,1.442,0,0,0-.178-.765,1.224,1.224,0,0,0-.459-.442,1.866,1.866,0,0,0-.629-.2,4.75,4.75,0,0,0-.689-.051,3.056,3.056,0,0,0-1.53.349,1.479,1.479,0,0,0-.663,1.317H86.836a3.121,3.121,0,0,1,.34-1.377,2.578,2.578,0,0,1,.816-.91,3.424,3.424,0,0,1,1.164-.5,6.15,6.15,0,0,1,1.4-.153,8.227,8.227,0,0,1,1.181.085,3.088,3.088,0,0,1,1.063.349,2.037,2.037,0,0,1,.765.739,2.367,2.367,0,0,1,.289,1.241v4.522a3.382,3.382,0,0,0,.06.748q.059.238.4.238a1.431,1.431,0,0,0,.442-.085ZM92.412-4.539a1.8,1.8,0,0,1-.714.3q-.442.093-.927.153t-.977.136a3.594,3.594,0,0,0-.884.247,1.608,1.608,0,0,0-.638.484,1.357,1.357,0,0,0-.246.859,1.175,1.175,0,0,0,.145.6,1.2,1.2,0,0,0,.374.4,1.569,1.569,0,0,0,.535.221,2.971,2.971,0,0,0,.646.068,3.423,3.423,0,0,0,1.224-.2,2.574,2.574,0,0,0,.833-.493,1.945,1.945,0,0,0,.476-.646,1.634,1.634,0,0,0,.153-.655Zm6.035-4.25v-2.635H97v2.635h-1.5v1.275H97v5.593a3.34,3.34,0,0,0,.119.986,1.2,1.2,0,0,0,.366.578,1.411,1.411,0,0,0,.646.28,5.189,5.189,0,0,0,.96.076H100.2V-1.275h-.663a4.819,4.819,0,0,1-.552-.025.714.714,0,0,1-.332-.11.42.42,0,0,1-.161-.238,1.577,1.577,0,0,1-.042-.408V-7.514H100.2V-8.789Zm5.219-1.581v-1.768h-1.445v1.768Zm-1.445,1.581V0h1.445V-8.789Zm5.083,4.4a4.372,4.372,0,0,1,.213-1.42,3.063,3.063,0,0,1,.587-1.045,2.5,2.5,0,0,1,.875-.646,2.606,2.606,0,0,1,1.063-.221A2.606,2.606,0,0,1,111.1-7.5a2.5,2.5,0,0,1,.876.646,3.063,3.063,0,0,1,.587,1.045,4.373,4.373,0,0,1,.212,1.42,4.373,4.373,0,0,1-.212,1.419,2.97,2.97,0,0,1-.587,1.037,2.545,2.545,0,0,1-.876.638,2.606,2.606,0,0,1-1.062.221,2.606,2.606,0,0,1-1.062-.221,2.545,2.545,0,0,1-.875-.638,2.97,2.97,0,0,1-.587-1.037A4.372,4.372,0,0,1,107.3-4.386Zm-1.53,0a5.773,5.773,0,0,0,.272,1.8,4.113,4.113,0,0,0,.816,1.453,3.754,3.754,0,0,0,1.343.969,4.554,4.554,0,0,0,1.836.348,4.539,4.539,0,0,0,1.845-.348,3.772,3.772,0,0,0,1.334-.969,4.113,4.113,0,0,0,.816-1.453,5.774,5.774,0,0,0,.272-1.8,5.854,5.854,0,0,0-.272-1.811,4.1,4.1,0,0,0-.816-1.462,3.863,3.863,0,0,0-1.334-.978,4.445,4.445,0,0,0-1.845-.357,4.46,4.46,0,0,0-1.836.357,3.844,3.844,0,0,0-1.343.978,4.1,4.1,0,0,0-.816,1.462A5.854,5.854,0,0,0,105.774-4.386Zm10.574-4.4V0h1.445V-4.964a3.56,3.56,0,0,1,.161-1.1,2.49,2.49,0,0,1,.485-.875,2.152,2.152,0,0,1,.808-.578,2.945,2.945,0,0,1,1.147-.2,1.769,1.769,0,0,1,1.309.476,1.746,1.746,0,0,1,.476,1.292V0h1.445V-5.78a5.439,5.439,0,0,0-.145-1.3,2.463,2.463,0,0,0-.5-1.011,2.376,2.376,0,0,0-.935-.663,3.814,3.814,0,0,0-1.445-.238,3.043,3.043,0,0,0-2.856,1.6h-.034V-8.789Z" transform="translate(9198.13 -692.976)" fill="#4c4c4f"></path><path id="Path_125" data-name="Path 125" d="M6.734-16.666a3.516,3.516,0,0,0-2.171.585A2.316,2.316,0,0,0,3.8-14.118a2.067,2.067,0,0,0,.26,1.066,2.633,2.633,0,0,0,.663.754,3.456,3.456,0,0,0,.936.507,9.63,9.63,0,0,0,1.079.325ZM3.406-5.642a4.147,4.147,0,0,0,.754,2.7A3.213,3.213,0,0,0,6.734-1.9V-8.19a21.547,21.547,0,0,1-2.119-.689,7.711,7.711,0,0,1-1.9-1.04,4.88,4.88,0,0,1-1.365-1.6,4.983,4.983,0,0,1-.52-2.392,4.8,4.8,0,0,1,.481-2.2,4.636,4.636,0,0,1,1.3-1.586A5.986,5.986,0,0,1,4.5-18.668a7.354,7.354,0,0,1,2.236-.338v-2.028H7.852v2.028a7.652,7.652,0,0,1,2.21.312,5.191,5.191,0,0,1,1.807.936,4.475,4.475,0,0,1,1.222,1.586,5.176,5.176,0,0,1,.455,2.236H10.582a3.109,3.109,0,0,0-.689-2.028,2.634,2.634,0,0,0-2.041-.7v5.486q1.17.312,2.288.728a7.688,7.688,0,0,1,1.976,1.066,4.95,4.95,0,0,1,1.378,1.612,4.923,4.923,0,0,1,.52,2.366,6.182,6.182,0,0,1-.481,2.535A5.02,5.02,0,0,1,12.22-1.079,5.8,5.8,0,0,1,10.27.013,8.61,8.61,0,0,1,7.852.442V2.47H6.734V.442A8.089,8.089,0,0,1,4.16,0a5.758,5.758,0,0,1-2-1.183A5.177,5.177,0,0,1,.871-3.068,6.475,6.475,0,0,1,.442-5.642ZM7.852-1.9a4.081,4.081,0,0,0,2.3-.819,2.735,2.735,0,0,0,.9-2.275,2.5,2.5,0,0,0-.273-1.222,2.579,2.579,0,0,0-.728-.832,4.006,4.006,0,0,0-1.027-.546Q8.45-7.8,7.852-7.956ZM28.418,0H15.99a7.415,7.415,0,0,1,1.092-3.952A9.99,9.99,0,0,1,19.994-6.89q.884-.65,1.846-1.261a14.619,14.619,0,0,0,1.768-1.313,6.993,6.993,0,0,0,1.326-1.521,3.611,3.611,0,0,0,.546-1.885,5.151,5.151,0,0,0-.117-1.053,2.786,2.786,0,0,0-.455-1.04,2.682,2.682,0,0,0-.936-.806,3.259,3.259,0,0,0-1.56-.325,2.814,2.814,0,0,0-1.469.351,2.624,2.624,0,0,0-.936.962,4.8,4.8,0,0,0-.52,1.443,10.433,10.433,0,0,0-.195,1.794H16.328a9.31,9.31,0,0,1,.4-2.8,6.2,6.2,0,0,1,1.209-2.223A5.706,5.706,0,0,1,19.9-18.031a6.372,6.372,0,0,1,2.691-.533,6.315,6.315,0,0,1,2.782.546,5.35,5.35,0,0,1,1.807,1.378,5.04,5.04,0,0,1,.975,1.807,6.605,6.605,0,0,1,.286,1.859A5.5,5.5,0,0,1,28.106-11a6.363,6.363,0,0,1-.91,1.625,9.2,9.2,0,0,1-1.3,1.365q-.728.624-1.508,1.17T22.828-5.8q-.78.494-1.443.988a8.475,8.475,0,0,0-1.157,1.027,2.916,2.916,0,0,0-.676,1.131h8.866Zm3.328-3.51H35.36V0H31.746Zm11.882-7.15a6.866,6.866,0,0,0,1.456-.1,4.052,4.052,0,0,0,1.3-.455,2.542,2.542,0,0,0,.923-.9,2.637,2.637,0,0,0,.351-1.4,2.376,2.376,0,0,0-.793-1.872,2.965,2.965,0,0,0-2.041-.7,2.782,2.782,0,0,0-1.352.312,2.776,2.776,0,0,0-.949.845,3.789,3.789,0,0,0-.559,1.2,4.5,4.5,0,0,0-.156,1.365H38.844a7.512,7.512,0,0,1,.494-2.457A6.182,6.182,0,0,1,40.547-16.8a5.37,5.37,0,0,1,1.859-1.3,6.214,6.214,0,0,1,2.47-.468,7.162,7.162,0,0,1,2.093.312,6.12,6.12,0,0,1,1.846.91,4.461,4.461,0,0,1,1.313,1.521,4.421,4.421,0,0,1,.494,2.119A4.54,4.54,0,0,1,50-11.3,3.569,3.569,0,0,1,48.048-9.8v.052A3.757,3.757,0,0,1,50.479-8.2a5.077,5.077,0,0,1,.871,3,5.079,5.079,0,0,1-.52,2.327,5.283,5.283,0,0,1-1.4,1.742,6.5,6.5,0,0,1-2.054,1.1,7.76,7.76,0,0,1-2.47.39,7.694,7.694,0,0,1-2.769-.455,5.321,5.321,0,0,1-1.976-1.287,5.558,5.558,0,0,1-1.209-2,8.167,8.167,0,0,1-.442-2.6H41.47a4.117,4.117,0,0,0,.819,2.769A3.124,3.124,0,0,0,44.9-2.106a3.717,3.717,0,0,0,2.483-.845,2.973,2.973,0,0,0,1-2.4,3.01,3.01,0,0,0-.416-1.69,2.691,2.691,0,0,0-1.092-.949,4.42,4.42,0,0,0-1.521-.4,14.243,14.243,0,0,0-1.729-.052Zm17-2.782h2.236v-4.03h2.964v4.03H68.51v2.21H65.832v7.176a7.157,7.157,0,0,0,.039.806,1.391,1.391,0,0,0,.182.572.87.87,0,0,0,.429.351,2.111,2.111,0,0,0,.78.117q.312,0,.624-.013a3.1,3.1,0,0,0,.624-.091V-.026l-.962.1a8.708,8.708,0,0,1-.962.052A6.561,6.561,0,0,1,64.7-.091a2.516,2.516,0,0,1-1.118-.65,2.243,2.243,0,0,1-.546-1.079A8.12,8.12,0,0,1,62.868-3.3v-7.93H60.632Zm10.53,0h2.782v2.6H74a3,3,0,0,1,.507-1.066,4.944,4.944,0,0,1,.91-.949,4.6,4.6,0,0,1,1.183-.689,3.542,3.542,0,0,1,1.326-.26,6.43,6.43,0,0,1,.715.026l.4.052v2.86q-.312-.052-.637-.091A5.344,5.344,0,0,0,77.766-11a3.407,3.407,0,0,0-1.417.3,3.254,3.254,0,0,0-1.157.884,4.332,4.332,0,0,0-.78,1.443A6.245,6.245,0,0,0,74.126-6.4V0H71.162Zm9.75-5.122h2.964v2.808H80.912Zm0,5.122h2.964V0H80.912ZM87.7-18.564h2.964V0H87.7Zm6.786,0h2.964V0H94.484Zm6.786,0h2.964v2.808H101.27Zm0,5.122h2.964V0H101.27ZM114.14.364a7.32,7.32,0,0,1-2.873-.533,6.127,6.127,0,0,1-2.132-1.469,6.283,6.283,0,0,1-1.326-2.236,8.607,8.607,0,0,1-.455-2.86,8.524,8.524,0,0,1,.455-2.834,6.283,6.283,0,0,1,1.326-2.236,6.127,6.127,0,0,1,2.132-1.469,7.32,7.32,0,0,1,2.873-.533,7.32,7.32,0,0,1,2.873.533,6.127,6.127,0,0,1,2.132,1.469,6.283,6.283,0,0,1,1.326,2.236,8.524,8.524,0,0,1,.455,2.834,8.607,8.607,0,0,1-.455,2.86,6.283,6.283,0,0,1-1.326,2.236,6.127,6.127,0,0,1-2.132,1.469A7.32,7.32,0,0,1,114.14.364Zm0-2.34a3.4,3.4,0,0,0,1.716-.416,3.616,3.616,0,0,0,1.2-1.092,4.766,4.766,0,0,0,.689-1.521,6.805,6.805,0,0,0,.221-1.729,6.856,6.856,0,0,0-.221-1.716,4.6,4.6,0,0,0-.689-1.521,3.673,3.673,0,0,0-1.2-1.079,3.4,3.4,0,0,0-1.716-.416,3.4,3.4,0,0,0-1.716.416,3.673,3.673,0,0,0-1.2,1.079,4.6,4.6,0,0,0-.689,1.521,6.856,6.856,0,0,0-.221,1.716,6.805,6.805,0,0,0,.221,1.729,4.766,4.766,0,0,0,.689,1.521,3.616,3.616,0,0,0,1.2,1.092A3.4,3.4,0,0,0,114.14-1.976Zm9.776-11.466h2.808v1.976l.052.052a4.97,4.97,0,0,1,1.768-1.755,4.711,4.711,0,0,1,2.418-.637,5.024,5.024,0,0,1,3.484,1.144A4.379,4.379,0,0,1,135.72-9.23V0h-2.964V-8.45a3.652,3.652,0,0,0-.676-2.3,2.455,2.455,0,0,0-1.95-.715,3.22,3.22,0,0,0-1.352.273,2.932,2.932,0,0,0-1.014.754,3.544,3.544,0,0,0-.65,1.131,4.037,4.037,0,0,0-.234,1.378V0h-2.964Z" transform="translate(9198.13 -657.716)" fill="#4c4c4f"></path><g id="Group_292" data-name="Group 292" transform="translate(9384.978 -735)"><path id="Path_52" data-name="Path 52" d="M0,0V141.757" fill="none" stroke="#2baaca" stroke-width="1"></path></g><path id="Path_54" data-name="Path 54" d="M320.919,155.02h80.73v-426.2h-80.73Z" transform="translate(9063.1 -294.471)" fill="#2baaca"></path><g id="Group_293" data-name="Group 293" transform="translate(9393.465 -625.984)"><path id="Path_57" data-name="Path 57" d="M29.594,22.564V9.46a1.3,1.3,0,0,0-.516-1.036l-9.806-7.4V-1.94a1.3,1.3,0,0,0-.516-1.036L-.543-17.528a1.3,1.3,0,0,0-1.561,0l-19.3,14.553a1.3,1.3,0,0,0-.516,1.036V1.029l-9.8,7.4a1.3,1.3,0,0,0-.516,1.036v13.1a1.3,1.3,0,0,0,1.3,1.3H28.3a1.3,1.3,0,0,0,1.3-1.3m-51.515-1.3h-7.727V10.106l7.727-5.826Zm19.2-6.538h2.8v6.538h-2.8Zm19.4,6.538H2.673V13.431a1.3,1.3,0,0,0-1.3-1.3h-5.4a1.3,1.3,0,0,0-1.3,1.3v7.834H-19.327V-1.294l18-13.575,18,13.575Zm10.32,0H19.272V4.279L27,10.106ZM29.331-.168a1.3,1.3,0,0,0-.253-1.818L-.543-24.323a1.3,1.3,0,0,0-1.563,0L-31.726-1.986A1.3,1.3,0,0,0-31.981-.17a1.3,1.3,0,0,0,1.816.255L-1.326-21.663,27.517.085A1.282,1.282,0,0,0,28.3.346a1.3,1.3,0,0,0,1.036-.514" transform="translate(32.243 24.584)" fill="#707070"></path></g><path id="Path_120" data-name="Path 120" d="M1.326-12.138V0H2.941V-5.185H6.885a2.144,2.144,0,0,1,.952.179,1.594,1.594,0,0,1,.578.476,1.973,1.973,0,0,1,.323.7q.1.4.17.842a5.925,5.925,0,0,1,.1.9q.017.459.034.859A5.239,5.239,0,0,0,9.12-.51,1.014,1.014,0,0,0,9.35,0h1.8a2.075,2.075,0,0,1-.383-.705,5.529,5.529,0,0,1-.2-.841,7.826,7.826,0,0,1-.085-.9q-.017-.459-.051-.9a7.813,7.813,0,0,0-.145-.85A2.58,2.58,0,0,0,10-4.938a1.863,1.863,0,0,0-.527-.569,2.163,2.163,0,0,0-.858-.34v-.034a2.581,2.581,0,0,0,1.606-1.139,3.684,3.684,0,0,0,.5-1.938,2.926,2.926,0,0,0-.977-2.329,4,4,0,0,0-2.711-.85ZM6.307-6.545H2.941v-4.233H6.953A2.1,2.1,0,0,1,8.6-10.2a2.178,2.178,0,0,1,.51,1.5,2.227,2.227,0,0,1-.23,1.08,1.816,1.816,0,0,1-.612.663,2.337,2.337,0,0,1-.893.332A6.51,6.51,0,0,1,6.307-6.545ZM19.176-5.236H14.127a3.01,3.01,0,0,1,.221-.96,2.562,2.562,0,0,1,.51-.791,2.336,2.336,0,0,1,.773-.535,2.516,2.516,0,0,1,1.012-.2,2.472,2.472,0,0,1,.995.2A2.5,2.5,0,0,1,18.42-7a2.477,2.477,0,0,1,.527.791A2.956,2.956,0,0,1,19.176-5.236ZM20.57-2.788H19.142A2.055,2.055,0,0,1,18.368-1.5a2.5,2.5,0,0,1-1.5.425,2.993,2.993,0,0,1-1.241-.238,2.432,2.432,0,0,1-.867-.638,2.483,2.483,0,0,1-.493-.918,3.489,3.489,0,0,1-.136-1.1h6.579a7,7,0,0,0-.145-1.683,4.872,4.872,0,0,0-.646-1.632,3.849,3.849,0,0,0-1.241-1.233,3.606,3.606,0,0,0-1.946-.484,4,4,0,0,0-1.658.34,3.9,3.9,0,0,0-1.309.952A4.388,4.388,0,0,0,12.9-6.256,5.289,5.289,0,0,0,12.6-4.42a7.045,7.045,0,0,0,.3,1.853,4.044,4.044,0,0,0,.79,1.462,3.6,3.6,0,0,0,1.3.952,4.515,4.515,0,0,0,1.828.34A3.989,3.989,0,0,0,19.3-.561,3.512,3.512,0,0,0,20.57-2.788Zm2.856.017H21.981a3.18,3.18,0,0,0,.34,1.386,2.557,2.557,0,0,0,.816.918,3.42,3.42,0,0,0,1.173.5A6.183,6.183,0,0,0,25.7.187,7.14,7.14,0,0,0,27.038.06a3.624,3.624,0,0,0,1.207-.451,2.591,2.591,0,0,0,.867-.85,2.448,2.448,0,0,0,.331-1.326A2.072,2.072,0,0,0,29.2-3.621a2.2,2.2,0,0,0-.646-.705,3.464,3.464,0,0,0-.918-.451,10.85,10.85,0,0,0-1.062-.289q-.51-.119-1.02-.23a5.884,5.884,0,0,1-.918-.272,2.1,2.1,0,0,1-.672-.408A.814.814,0,0,1,23.7-6.6a.857.857,0,0,1,.17-.552,1.215,1.215,0,0,1,.442-.34,2.2,2.2,0,0,1,.6-.179,4.3,4.3,0,0,1,.655-.051,3.281,3.281,0,0,1,.705.076,2.163,2.163,0,0,1,.638.247,1.447,1.447,0,0,1,.476.451,1.463,1.463,0,0,1,.221.705h1.445a3.228,3.228,0,0,0-.34-1.334,2.288,2.288,0,0,0-.774-.85,3.186,3.186,0,0,0-1.114-.442,6.939,6.939,0,0,0-1.377-.128,4.854,4.854,0,0,0-1.165.144,3.512,3.512,0,0,0-1.054.442,2.433,2.433,0,0,0-.765.773,2.106,2.106,0,0,0-.3,1.139,1.922,1.922,0,0,0,.425,1.326,2.868,2.868,0,0,0,1.063.739,7.189,7.189,0,0,0,1.385.408q.748.144,1.385.323a3.617,3.617,0,0,1,1.063.467.962.962,0,0,1,.425.85,1.065,1.065,0,0,1-.2.672,1.293,1.293,0,0,1-.518.4,2.618,2.618,0,0,1-.689.187,5.29,5.29,0,0,1-.714.051,4.283,4.283,0,0,1-.859-.085,2.409,2.409,0,0,1-.748-.28,1.538,1.538,0,0,1-.536-.527A1.627,1.627,0,0,1,23.426-2.771Zm9.486-7.6v-1.768H31.467v1.768ZM31.467-8.789V0h1.445V-8.789ZM36.55-4.318a5.782,5.782,0,0,1,.136-1.258,3.328,3.328,0,0,1,.442-1.088,2.3,2.3,0,0,1,.816-.765,2.481,2.481,0,0,1,1.241-.289,2.682,2.682,0,0,1,1.275.28,2.475,2.475,0,0,1,.859.74A3.092,3.092,0,0,1,41.8-5.635a5.065,5.065,0,0,1,.153,1.25,5.1,5.1,0,0,1-.145,1.207,3.163,3.163,0,0,1-.467,1.063,2.487,2.487,0,0,1-.833.756,2.481,2.481,0,0,1-1.241.289,2.581,2.581,0,0,1-1.215-.272,2.416,2.416,0,0,1-.85-.731,3.235,3.235,0,0,1-.493-1.046A4.494,4.494,0,0,1,36.55-4.318ZM43.35,0V-12.138H41.905v4.522h-.034a2.328,2.328,0,0,0-.587-.655,3.332,3.332,0,0,0-.739-.425,3.712,3.712,0,0,0-.782-.229,4.28,4.28,0,0,0-.731-.068,4,4,0,0,0-1.76.366,3.612,3.612,0,0,0-1.258.986,4.163,4.163,0,0,0-.748,1.454A6.2,6.2,0,0,0,35.02-4.42a6.008,6.008,0,0,0,.255,1.768,4.37,4.37,0,0,0,.757,1.462,3.656,3.656,0,0,0,1.258,1,3.964,3.964,0,0,0,1.777.374,4.284,4.284,0,0,0,1.683-.323A2.127,2.127,0,0,0,41.871-1.19h.034V0Zm8.67-5.236H46.971a3.01,3.01,0,0,1,.221-.96,2.562,2.562,0,0,1,.51-.791,2.336,2.336,0,0,1,.773-.535,2.516,2.516,0,0,1,1.012-.2,2.472,2.472,0,0,1,.994.2A2.5,2.5,0,0,1,51.264-7a2.477,2.477,0,0,1,.527.791A2.956,2.956,0,0,1,52.02-5.236Zm1.394,2.448H51.986A2.055,2.055,0,0,1,51.212-1.5a2.5,2.5,0,0,1-1.5.425,2.993,2.993,0,0,1-1.241-.238,2.432,2.432,0,0,1-.867-.638,2.483,2.483,0,0,1-.493-.918,3.489,3.489,0,0,1-.136-1.1H53.55a7,7,0,0,0-.145-1.683,4.872,4.872,0,0,0-.646-1.632,3.849,3.849,0,0,0-1.241-1.233,3.606,3.606,0,0,0-1.946-.484,4,4,0,0,0-1.658.34,3.9,3.9,0,0,0-1.309.952,4.388,4.388,0,0,0-.859,1.445,5.289,5.289,0,0,0-.306,1.836,7.045,7.045,0,0,0,.3,1.853,4.044,4.044,0,0,0,.791,1.462,3.6,3.6,0,0,0,1.3.952,4.515,4.515,0,0,0,1.827.34,3.989,3.989,0,0,0,2.482-.748A3.512,3.512,0,0,0,53.414-2.788Zm1.972-6V0h1.445V-4.964a3.56,3.56,0,0,1,.161-1.1,2.49,2.49,0,0,1,.485-.875,2.152,2.152,0,0,1,.807-.578,2.945,2.945,0,0,1,1.147-.2,1.769,1.769,0,0,1,1.309.476,1.746,1.746,0,0,1,.476,1.292V0h1.445V-5.78a5.439,5.439,0,0,0-.145-1.3,2.463,2.463,0,0,0-.5-1.011,2.376,2.376,0,0,0-.935-.663,3.814,3.814,0,0,0-1.445-.238,3.043,3.043,0,0,0-2.856,1.6h-.034V-8.789Zm11.8,0v-2.635H65.739v2.635h-1.5v1.275h1.5v5.593a3.34,3.34,0,0,0,.119.986,1.2,1.2,0,0,0,.366.578,1.411,1.411,0,0,0,.646.28A5.189,5.189,0,0,0,67.83,0h1.105V-1.275h-.663a4.819,4.819,0,0,1-.552-.025.714.714,0,0,1-.332-.11.42.42,0,0,1-.161-.238,1.577,1.577,0,0,1-.042-.408V-7.514h1.751V-8.789ZM72.4-10.37v-1.768H70.958v1.768ZM70.958-8.789V0H72.4V-8.789ZM82.773-.034a2.044,2.044,0,0,1-1.037.221,1.243,1.243,0,0,1-.892-.315,1.367,1.367,0,0,1-.332-1.029A3.457,3.457,0,0,1,79.127-.127a4.58,4.58,0,0,1-1.709.315A4.577,4.577,0,0,1,76.287.051a2.629,2.629,0,0,1-.926-.425,2.04,2.04,0,0,1-.62-.756,2.545,2.545,0,0,1-.229-1.13,2.582,2.582,0,0,1,.255-1.224,2.225,2.225,0,0,1,.672-.774,3.077,3.077,0,0,1,.952-.451q.536-.153,1.1-.255.6-.119,1.131-.179a6.3,6.3,0,0,0,.944-.17,1.572,1.572,0,0,0,.646-.323.789.789,0,0,0,.238-.621,1.442,1.442,0,0,0-.178-.765,1.224,1.224,0,0,0-.459-.442,1.866,1.866,0,0,0-.629-.2,4.75,4.75,0,0,0-.689-.051,3.056,3.056,0,0,0-1.53.349A1.479,1.479,0,0,0,76.3-6.052H74.851a3.121,3.121,0,0,1,.34-1.377,2.578,2.578,0,0,1,.816-.91,3.424,3.424,0,0,1,1.164-.5,6.15,6.15,0,0,1,1.4-.153,8.227,8.227,0,0,1,1.181.085,3.088,3.088,0,0,1,1.063.349,2.037,2.037,0,0,1,.765.739,2.367,2.367,0,0,1,.289,1.241v4.522a3.382,3.382,0,0,0,.06.748q.059.238.4.238a1.431,1.431,0,0,0,.442-.085ZM80.427-4.539a1.8,1.8,0,0,1-.714.3q-.442.093-.927.153t-.977.136a3.594,3.594,0,0,0-.884.247,1.608,1.608,0,0,0-.638.484,1.357,1.357,0,0,0-.246.859,1.175,1.175,0,0,0,.145.6,1.2,1.2,0,0,0,.374.4,1.569,1.569,0,0,0,.535.221,2.971,2.971,0,0,0,.646.068,3.423,3.423,0,0,0,1.224-.2A2.574,2.574,0,0,0,79.8-1.76a1.945,1.945,0,0,0,.476-.646,1.634,1.634,0,0,0,.153-.655Zm4.114-7.6V0h1.445V-12.138Z" transform="translate(9401 -717.908)" fill="#4c4c4f"></path><path id="Path_121" data-name="Path 121" d="M1.326-12.138V0H2.941V-5.185H6.885a2.144,2.144,0,0,1,.952.179,1.594,1.594,0,0,1,.578.476,1.973,1.973,0,0,1,.323.7q.1.4.17.842a5.925,5.925,0,0,1,.1.9q.017.459.034.859A5.239,5.239,0,0,0,9.12-.51,1.014,1.014,0,0,0,9.35,0h1.8a2.075,2.075,0,0,1-.383-.705,5.529,5.529,0,0,1-.2-.841,7.826,7.826,0,0,1-.085-.9q-.017-.459-.051-.9a7.813,7.813,0,0,0-.145-.85A2.58,2.58,0,0,0,10-4.938a1.863,1.863,0,0,0-.527-.569,2.163,2.163,0,0,0-.858-.34v-.034a2.581,2.581,0,0,0,1.606-1.139,3.684,3.684,0,0,0,.5-1.938,2.926,2.926,0,0,0-.977-2.329,4,4,0,0,0-2.711-.85ZM6.307-6.545H2.941v-4.233H6.953A2.1,2.1,0,0,1,8.6-10.2a2.178,2.178,0,0,1,.51,1.5,2.227,2.227,0,0,1-.23,1.08,1.816,1.816,0,0,1-.612.663,2.337,2.337,0,0,1-.893.332A6.51,6.51,0,0,1,6.307-6.545ZM19.176-5.236H14.127a3.01,3.01,0,0,1,.221-.96,2.562,2.562,0,0,1,.51-.791,2.336,2.336,0,0,1,.773-.535,2.516,2.516,0,0,1,1.012-.2,2.472,2.472,0,0,1,.995.2A2.5,2.5,0,0,1,18.42-7a2.477,2.477,0,0,1,.527.791A2.956,2.956,0,0,1,19.176-5.236ZM20.57-2.788H19.142A2.055,2.055,0,0,1,18.368-1.5a2.5,2.5,0,0,1-1.5.425,2.993,2.993,0,0,1-1.241-.238,2.432,2.432,0,0,1-.867-.638,2.483,2.483,0,0,1-.493-.918,3.489,3.489,0,0,1-.136-1.1h6.579a7,7,0,0,0-.145-1.683,4.872,4.872,0,0,0-.646-1.632,3.849,3.849,0,0,0-1.241-1.233,3.606,3.606,0,0,0-1.946-.484,4,4,0,0,0-1.658.34,3.9,3.9,0,0,0-1.309.952A4.388,4.388,0,0,0,12.9-6.256,5.289,5.289,0,0,0,12.6-4.42a7.045,7.045,0,0,0,.3,1.853,4.044,4.044,0,0,0,.79,1.462,3.6,3.6,0,0,0,1.3.952,4.515,4.515,0,0,0,1.828.34A3.989,3.989,0,0,0,19.3-.561,3.512,3.512,0,0,0,20.57-2.788ZM30.328-.034a2.044,2.044,0,0,1-1.037.221A1.243,1.243,0,0,1,28.4-.127a1.367,1.367,0,0,1-.331-1.029A3.457,3.457,0,0,1,26.681-.127a4.58,4.58,0,0,1-1.708.315,4.577,4.577,0,0,1-1.13-.136,2.629,2.629,0,0,1-.927-.425A2.04,2.04,0,0,1,22.3-1.13a2.545,2.545,0,0,1-.229-1.13,2.582,2.582,0,0,1,.255-1.224,2.225,2.225,0,0,1,.671-.774,3.077,3.077,0,0,1,.952-.451q.536-.153,1.1-.255.6-.119,1.131-.179a6.3,6.3,0,0,0,.944-.17,1.572,1.572,0,0,0,.646-.323A.789.789,0,0,0,28-6.256a1.442,1.442,0,0,0-.179-.765,1.224,1.224,0,0,0-.459-.442,1.866,1.866,0,0,0-.629-.2,4.75,4.75,0,0,0-.688-.051,3.056,3.056,0,0,0-1.53.349,1.479,1.479,0,0,0-.663,1.317H22.406a3.121,3.121,0,0,1,.34-1.377,2.578,2.578,0,0,1,.816-.91,3.424,3.424,0,0,1,1.165-.5,6.15,6.15,0,0,1,1.4-.153,8.227,8.227,0,0,1,1.181.085,3.088,3.088,0,0,1,1.063.349,2.037,2.037,0,0,1,.765.739,2.367,2.367,0,0,1,.289,1.241v4.522a3.382,3.382,0,0,0,.059.748q.06.238.4.238a1.431,1.431,0,0,0,.442-.085ZM27.982-4.539a1.8,1.8,0,0,1-.714.3q-.442.093-.927.153t-.977.136a3.594,3.594,0,0,0-.884.247,1.608,1.608,0,0,0-.637.484,1.357,1.357,0,0,0-.247.859,1.175,1.175,0,0,0,.145.6,1.2,1.2,0,0,0,.374.4,1.569,1.569,0,0,0,.535.221,2.971,2.971,0,0,0,.646.068,3.423,3.423,0,0,0,1.224-.2,2.575,2.575,0,0,0,.833-.493,1.945,1.945,0,0,0,.476-.646,1.634,1.634,0,0,0,.153-.655Zm4.114-7.6V0h1.445V-12.138Zm9.333,0V0h8.432V-1.36H43.044v-4.2h6.307v-1.36H43.044v-3.859H49.81v-1.36ZM52.8-2.771H51.357a3.18,3.18,0,0,0,.34,1.386,2.557,2.557,0,0,0,.816.918,3.42,3.42,0,0,0,1.173.5A6.183,6.183,0,0,0,55.08.187,7.14,7.14,0,0,0,56.415.06a3.624,3.624,0,0,0,1.207-.451,2.591,2.591,0,0,0,.867-.85,2.448,2.448,0,0,0,.331-1.326,2.072,2.072,0,0,0-.246-1.054,2.2,2.2,0,0,0-.646-.705,3.464,3.464,0,0,0-.918-.451,10.851,10.851,0,0,0-1.062-.289q-.51-.119-1.02-.23a5.884,5.884,0,0,1-.918-.272,2.1,2.1,0,0,1-.672-.408.814.814,0,0,1-.264-.621.857.857,0,0,1,.17-.552,1.215,1.215,0,0,1,.442-.34,2.2,2.2,0,0,1,.6-.179,4.3,4.3,0,0,1,.654-.051,3.281,3.281,0,0,1,.706.076,2.163,2.163,0,0,1,.638.247,1.447,1.447,0,0,1,.476.451,1.463,1.463,0,0,1,.221.705h1.445a3.228,3.228,0,0,0-.34-1.334,2.288,2.288,0,0,0-.773-.85A3.186,3.186,0,0,0,56.2-8.865a6.94,6.94,0,0,0-1.377-.128,4.853,4.853,0,0,0-1.164.144,3.512,3.512,0,0,0-1.054.442,2.432,2.432,0,0,0-.765.773,2.106,2.106,0,0,0-.3,1.139,1.922,1.922,0,0,0,.425,1.326,2.868,2.868,0,0,0,1.063.739,7.189,7.189,0,0,0,1.385.408q.748.144,1.386.323a3.617,3.617,0,0,1,1.063.467.962.962,0,0,1,.425.85,1.065,1.065,0,0,1-.2.672,1.293,1.293,0,0,1-.519.4,2.618,2.618,0,0,1-.688.187,5.291,5.291,0,0,1-.714.051,4.283,4.283,0,0,1-.858-.085,2.409,2.409,0,0,1-.748-.28,1.538,1.538,0,0,1-.535-.527A1.627,1.627,0,0,1,52.8-2.771Zm9.962-6.018v-2.635H61.319v2.635h-1.5v1.275h1.5v5.593a3.339,3.339,0,0,0,.119.986,1.2,1.2,0,0,0,.365.578,1.411,1.411,0,0,0,.646.28A5.189,5.189,0,0,0,63.41,0h1.1V-1.275h-.663A4.819,4.819,0,0,1,63.3-1.3a.714.714,0,0,1-.332-.11.42.42,0,0,1-.161-.238,1.577,1.577,0,0,1-.042-.408V-7.514h1.751V-8.789ZM74.239-.034A2.044,2.044,0,0,1,73.2.187a1.243,1.243,0,0,1-.893-.315,1.367,1.367,0,0,1-.331-1.029A3.457,3.457,0,0,1,70.592-.127a4.58,4.58,0,0,1-1.709.315A4.577,4.577,0,0,1,67.753.051a2.629,2.629,0,0,1-.926-.425,2.04,2.04,0,0,1-.62-.756,2.545,2.545,0,0,1-.229-1.13,2.582,2.582,0,0,1,.255-1.224,2.225,2.225,0,0,1,.672-.774,3.077,3.077,0,0,1,.952-.451q.536-.153,1.1-.255.6-.119,1.131-.179a6.3,6.3,0,0,0,.944-.17,1.572,1.572,0,0,0,.646-.323.789.789,0,0,0,.238-.621,1.442,1.442,0,0,0-.178-.765,1.224,1.224,0,0,0-.459-.442,1.866,1.866,0,0,0-.629-.2,4.75,4.75,0,0,0-.688-.051,3.056,3.056,0,0,0-1.53.349,1.479,1.479,0,0,0-.663,1.317H66.317a3.121,3.121,0,0,1,.34-1.377,2.578,2.578,0,0,1,.816-.91,3.424,3.424,0,0,1,1.164-.5,6.15,6.15,0,0,1,1.4-.153,8.227,8.227,0,0,1,1.181.085,3.088,3.088,0,0,1,1.063.349,2.037,2.037,0,0,1,.765.739,2.367,2.367,0,0,1,.289,1.241v4.522a3.382,3.382,0,0,0,.06.748q.059.238.4.238a1.431,1.431,0,0,0,.442-.085ZM71.893-4.539a1.8,1.8,0,0,1-.714.3q-.442.093-.927.153t-.977.136a3.594,3.594,0,0,0-.884.247,1.608,1.608,0,0,0-.638.484,1.357,1.357,0,0,0-.246.859,1.175,1.175,0,0,0,.145.6,1.2,1.2,0,0,0,.374.4,1.569,1.569,0,0,0,.535.221,2.971,2.971,0,0,0,.646.068,3.423,3.423,0,0,0,1.224-.2,2.575,2.575,0,0,0,.833-.493,1.945,1.945,0,0,0,.476-.646,1.634,1.634,0,0,0,.153-.655Zm6.035-4.25v-2.635H76.483v2.635h-1.5v1.275h1.5v5.593a3.34,3.34,0,0,0,.119.986,1.2,1.2,0,0,0,.366.578,1.411,1.411,0,0,0,.646.28,5.189,5.189,0,0,0,.96.076h1.105V-1.275h-.663a4.819,4.819,0,0,1-.552-.025.714.714,0,0,1-.332-.11.42.42,0,0,1-.161-.238,1.577,1.577,0,0,1-.042-.408V-7.514h1.751V-8.789ZM87.72-5.236H82.671a3.01,3.01,0,0,1,.221-.96,2.562,2.562,0,0,1,.51-.791,2.336,2.336,0,0,1,.773-.535,2.516,2.516,0,0,1,1.011-.2,2.472,2.472,0,0,1,.995.2A2.5,2.5,0,0,1,86.964-7a2.477,2.477,0,0,1,.527.791A2.956,2.956,0,0,1,87.72-5.236Zm1.394,2.448H87.686A2.055,2.055,0,0,1,86.912-1.5a2.5,2.5,0,0,1-1.5.425,2.993,2.993,0,0,1-1.241-.238,2.432,2.432,0,0,1-.867-.638,2.483,2.483,0,0,1-.493-.918,3.489,3.489,0,0,1-.136-1.1H89.25a7,7,0,0,0-.145-1.683,4.872,4.872,0,0,0-.646-1.632,3.849,3.849,0,0,0-1.241-1.233,3.606,3.606,0,0,0-1.946-.484,4,4,0,0,0-1.658.34,3.9,3.9,0,0,0-1.309.952,4.388,4.388,0,0,0-.858,1.445,5.289,5.289,0,0,0-.306,1.836,7.045,7.045,0,0,0,.3,1.853,4.044,4.044,0,0,0,.79,1.462,3.6,3.6,0,0,0,1.3.952,4.515,4.515,0,0,0,1.827.34,3.989,3.989,0,0,0,2.482-.748A3.512,3.512,0,0,0,89.114-2.788Z" transform="translate(9401 -692.976)" fill="#4c4c4f"></path><path id="Path_122" data-name="Path 122" d="M6.734-16.666a3.516,3.516,0,0,0-2.171.585A2.316,2.316,0,0,0,3.8-14.118a2.067,2.067,0,0,0,.26,1.066,2.633,2.633,0,0,0,.663.754,3.456,3.456,0,0,0,.936.507,9.63,9.63,0,0,0,1.079.325ZM3.406-5.642a4.147,4.147,0,0,0,.754,2.7A3.213,3.213,0,0,0,6.734-1.9V-8.19a21.547,21.547,0,0,1-2.119-.689,7.711,7.711,0,0,1-1.9-1.04,4.88,4.88,0,0,1-1.365-1.6,4.983,4.983,0,0,1-.52-2.392,4.8,4.8,0,0,1,.481-2.2,4.636,4.636,0,0,1,1.3-1.586A5.986,5.986,0,0,1,4.5-18.668a7.354,7.354,0,0,1,2.236-.338v-2.028H7.852v2.028a7.652,7.652,0,0,1,2.21.312,5.191,5.191,0,0,1,1.807.936,4.475,4.475,0,0,1,1.222,1.586,5.176,5.176,0,0,1,.455,2.236H10.582a3.109,3.109,0,0,0-.689-2.028,2.634,2.634,0,0,0-2.041-.7v5.486q1.17.312,2.288.728a7.688,7.688,0,0,1,1.976,1.066,4.95,4.95,0,0,1,1.378,1.612,4.923,4.923,0,0,1,.52,2.366,6.182,6.182,0,0,1-.481,2.535A5.02,5.02,0,0,1,12.22-1.079,5.8,5.8,0,0,1,10.27.013,8.61,8.61,0,0,1,7.852.442V2.47H6.734V.442A8.089,8.089,0,0,1,4.16,0a5.758,5.758,0,0,1-2-1.183A5.177,5.177,0,0,1,.871-3.068,6.475,6.475,0,0,1,.442-5.642ZM7.852-1.9a4.081,4.081,0,0,0,2.3-.819,2.735,2.735,0,0,0,.9-2.275,2.5,2.5,0,0,0-.273-1.222,2.579,2.579,0,0,0-.728-.832,4.006,4.006,0,0,0-1.027-.546Q8.45-7.8,7.852-7.956Zm8.034-16.3H28.34v2.47a32.378,32.378,0,0,0-2.6,3.341A24.333,24.333,0,0,0,23.7-8.723a24.789,24.789,0,0,0-1.417,4.095A26.925,26.925,0,0,0,21.554,0H18.3a21.754,21.754,0,0,1,.741-4.264,26.194,26.194,0,0,1,1.508-4.082,28.243,28.243,0,0,1,2.145-3.8,32.256,32.256,0,0,1,2.626-3.406H15.886ZM31.746-3.51H35.36V0H31.746Zm8.866-3.146h5.512v-8.008h-.052Zm10.66,2.34h-2.34V0H46.124V-4.316h-7.8V-7.254l7.8-10.946h2.808V-6.656h2.34Zm9.36-9.126h2.236v-4.03h2.964v4.03H68.51v2.21H65.832v7.176a7.157,7.157,0,0,0,.039.806,1.391,1.391,0,0,0,.182.572.87.87,0,0,0,.429.351,2.111,2.111,0,0,0,.78.117q.312,0,.624-.013a3.1,3.1,0,0,0,.624-.091V-.026l-.962.1a8.708,8.708,0,0,1-.962.052A6.561,6.561,0,0,1,64.7-.091a2.516,2.516,0,0,1-1.118-.65,2.243,2.243,0,0,1-.546-1.079A8.12,8.12,0,0,1,62.868-3.3v-7.93H60.632Zm10.53,0h2.782v2.6H74a3,3,0,0,1,.507-1.066,4.944,4.944,0,0,1,.91-.949,4.6,4.6,0,0,1,1.183-.689,3.542,3.542,0,0,1,1.326-.26,6.43,6.43,0,0,1,.715.026l.4.052v2.86q-.312-.052-.637-.091A5.344,5.344,0,0,0,77.766-11a3.407,3.407,0,0,0-1.417.3,3.254,3.254,0,0,0-1.157.884,4.332,4.332,0,0,0-.78,1.443A6.245,6.245,0,0,0,74.126-6.4V0H71.162Zm9.75-5.122h2.964v2.808H80.912Zm0,5.122h2.964V0H80.912ZM87.7-18.564h2.964V0H87.7Zm6.786,0h2.964V0H94.484Zm6.786,0h2.964v2.808H101.27Zm0,5.122h2.964V0H101.27ZM114.14.364a7.32,7.32,0,0,1-2.873-.533,6.127,6.127,0,0,1-2.132-1.469,6.283,6.283,0,0,1-1.326-2.236,8.607,8.607,0,0,1-.455-2.86,8.524,8.524,0,0,1,.455-2.834,6.283,6.283,0,0,1,1.326-2.236,6.127,6.127,0,0,1,2.132-1.469,7.32,7.32,0,0,1,2.873-.533,7.32,7.32,0,0,1,2.873.533,6.127,6.127,0,0,1,2.132,1.469,6.283,6.283,0,0,1,1.326,2.236,8.524,8.524,0,0,1,.455,2.834,8.607,8.607,0,0,1-.455,2.86,6.283,6.283,0,0,1-1.326,2.236,6.127,6.127,0,0,1-2.132,1.469A7.32,7.32,0,0,1,114.14.364Zm0-2.34a3.4,3.4,0,0,0,1.716-.416,3.616,3.616,0,0,0,1.2-1.092,4.766,4.766,0,0,0,.689-1.521,6.805,6.805,0,0,0,.221-1.729,6.856,6.856,0,0,0-.221-1.716,4.6,4.6,0,0,0-.689-1.521,3.673,3.673,0,0,0-1.2-1.079,3.4,3.4,0,0,0-1.716-.416,3.4,3.4,0,0,0-1.716.416,3.673,3.673,0,0,0-1.2,1.079,4.6,4.6,0,0,0-.689,1.521,6.856,6.856,0,0,0-.221,1.716,6.805,6.805,0,0,0,.221,1.729,4.766,4.766,0,0,0,.689,1.521,3.616,3.616,0,0,0,1.2,1.092A3.4,3.4,0,0,0,114.14-1.976Zm9.776-11.466h2.808v1.976l.052.052a4.97,4.97,0,0,1,1.768-1.755,4.711,4.711,0,0,1,2.418-.637,5.024,5.024,0,0,1,3.484,1.144A4.379,4.379,0,0,1,135.72-9.23V0h-2.964V-8.45a3.652,3.652,0,0,0-.676-2.3,2.455,2.455,0,0,0-1.95-.715,3.22,3.22,0,0,0-1.352.273,2.932,2.932,0,0,0-1.014.754,3.544,3.544,0,0,0-.65,1.131,4.037,4.037,0,0,0-.234,1.378V0h-2.964Z" transform="translate(9401 -657.716)" fill="#4c4c4f"></path></g></svg>