<svg xmlns="http://www.w3.org/2000/svg" xmlns:xlink="http://www.w3.org/1999/xlink" width="410" height="449" viewBox="0 0 410 449">
  <defs>
    <clipPath id="clip-SBS_COMPASS">
      <rect width="410" height="449"/>
    </clipPath>
  </defs>
  <g id="SBS_COMPASS" clip-path="url(#clip-SBS_COMPASS)">
    <g id="Group_285" data-name="Group 285" transform="translate(3.545 12.629)">
      <g id="Group_283" data-name="Group 283" transform="translate(9.5 -16.5)">
        <g id="Ellipse_2" data-name="Ellipse 2" transform="translate(105 149)" fill="none" stroke="#fff" stroke-width="1">
          <circle cx="91.5" cy="91.5" r="91.5" stroke="none"/>
          <circle cx="91.5" cy="91.5" r="91" fill="none"/>
        </g>
        <g id="Ellipse_3" data-name="Ellipse 3" transform="translate(93 137)" fill="none" stroke="#fff" stroke-width="1">
          <circle cx="103.5" cy="103.5" r="103.5" stroke="none"/>
          <circle cx="103.5" cy="103.5" r="103" fill="none"/>
        </g>
        <line id="Line_6" data-name="Line 6" x2="243" transform="translate(74.5 240.5)" fill="none" stroke="#fff" stroke-width="1"/>
        <line id="Line_7" data-name="Line 7" x2="243" transform="translate(196.5 119.5) rotate(90)" fill="none" stroke="#fff" stroke-width="1"/>
        <line id="Line_8" data-name="Line 8" y2="104" transform="translate(196.5 137.5)" fill="none" stroke="#fff" stroke-width="20"/>
      </g>
      <path id="Path_226" data-name="Path 226" d="M18.744,0h-4.97L-13.7-41.748V0h-4.97V-49.629h4.97L13.774-7.952V-49.629h4.97Z" transform="translate(205 95)" fill="#fff"/>
      <path id="Path_228" data-name="Path 228" d="M.39.24A7.609,7.609,0,0,1-4.215-1.065,4.755,4.755,0,0,1-6.21-4.62h2.16a3.1,3.1,0,0,0,1.3,2.235,5.1,5.1,0,0,0,3.1.855,4.079,4.079,0,0,0,2.685-.81A2.513,2.513,0,0,0,4.02-4.35a1.869,1.869,0,0,0-.54-1.38,3.831,3.831,0,0,0-1.365-.855A21.312,21.312,0,0,0-.12-7.26a22.727,22.727,0,0,1-2.97-.96A5.059,5.059,0,0,1-5.025-9.645a3.81,3.81,0,0,1-.8-2.535A3.77,3.77,0,0,1-5.1-14.4a4.913,4.913,0,0,1,2.04-1.62,7.174,7.174,0,0,1,3-.6A6.484,6.484,0,0,1,4.2-15.285,4.848,4.848,0,0,1,5.94-11.61H3.84a3.189,3.189,0,0,0-1.125-2.325A4.221,4.221,0,0,0-.12-14.82a4.159,4.159,0,0,0-2.58.75,2.256,2.256,0,0,0-.99,1.86,2.192,2.192,0,0,0,.585,1.575,4.019,4.019,0,0,0,1.455.96q.87.345,2.34.765a22.1,22.1,0,0,1,2.82.93,4.891,4.891,0,0,1,1.8,1.32,3.533,3.533,0,0,1,.78,2.31A4.024,4.024,0,0,1,5.37-2,4.9,4.9,0,0,1,3.36-.36,6.97,6.97,0,0,1,.39.24Z" transform="translate(205 378)" fill="#fff"/>
      <path id="Path_229" data-name="Path 229" d="M-3.045-19.26v7.83H4.9v1.74h-7.95v7.95H5.8V0H-5.145V-21H5.8v1.74Z" transform="translate(349 235)" fill="#fff"/>
      <path id="Path_227" data-name="Path 227" d="M13.515-20.97,7.575,0H5.235L-.045-17.88-5.445,0l-2.28.03-5.82-21h2.25l4.8,18.39,5.37-18.39h2.34L6.435-2.58l4.83-18.39Z" transform="translate(62 235)" fill="#fff"/>
    </g>
  </g>
</svg>
